<svg xmlns="http://www.w3.org/2000/svg" width="276.37554931640625" height="409.9638366699219" viewBox="-39.39482116699219 -101.39925384521484 276.37554931640625 409.9638366699219"><title>Neo4j Graph Visualization</title><desc>Created using Neo4j (http://www.neo4j.com/)</desc><g class="layer relationships"><g class="relationship" transform="translate(72.10677680895428 -28.36312171335399) rotate(201.1845190669871)"><path class="outline" fill="#A5ABB6" stroke="none" d="M 24.018736134675446,-6.953439040707552 L 24.277555179777966,-5.987513214418485 A 68.41935010764087 68.41935010764087 0 0 1 29.823416911316347,-7.229164323428478 L 29.64565478538674,-8.213237809802834 A 69.41935010764087 69.41935010764087 0 0 0 24.018736134675446,-6.953439040707552 Z M 51.71895823898485,-8.633123274961335 L 51.57874989386609,-7.643001252198957 A 68.41935010764087 68.41935010764087 0 0 1 57.167820636661695,-6.61316240370188 L 56.50213024768823,-3.6879519316113063 L 64.10426013636861,-5.54741990811222 L 58.05540782195965,-10.513443033155976 L 57.38971743298618,-7.588232561065404 A 69.41935010764087 69.41935010764087 0 0 0 51.71895823898485,-8.633123274961335"/><text text-anchor="middle" pointer-events="none" font-size="8px" fill="#000000" x="40.675017164706134" y="-5.806380229555103" transform="rotate(180 40.675017164706134 -8.806380229555103)" font-family="sans-serif">road</text></g><g class="relationship" transform="translate(-10.394820902157754 -60.33774017941537) rotate(355.40452885852574)"><path class="outline" fill="#A5ABB6" stroke="none" d="M 21.40063509461097,-12.933012701892217 L 21.90063509461097,-12.06698729810778 A 85.65290728627257 85.65290728627257 0 0 1 39.83050760606868,-19.844142014539713 L 39.53983935065888,-20.80096590914991 A 86.65290728627257 86.65290728627257 0 0 0 21.40063509461097,-12.933012701892217 Z M 85.69525868147409,-21.96710886308753 L 85.45327984198224,-20.99682733629328 A 85.65290728627257 85.65290728627257 0 0 1 103.75301370607458,-14.135034256941609 L 102.38612753006096,-11.464524533719677 L 110.21201742292803,-11.390718133446823 L 105.57552860742608,-17.695713887904184 L 104.20864243141246,-15.02520416468225 A 86.65290728627257 86.65290728627257 0 0 0 85.69525868147409,-21.96710886308753"/><text text-anchor="middle" pointer-events="none" font-size="8px" fill="#000000" x="62.55108088829972" y="-21.014816313221942" font-family="sans-serif">twowheeler</text></g><g class="relationship" transform="translate(121.64559359197153 -70.9509552492513) rotate(438.91626980194985)"><path class="outline" fill="#A5ABB6" stroke="none" d="M 21.40063509461097,12.933012701892217 L 21.90063509461097,12.06698729810778 A 76.45508484249085 76.45508484249085 0 0 0 48.5032301315845,21.421075502434405 L 48.35118076288363,22.409448402446174 A 77.45508484249085 77.45508484249085 0 0 1 21.40063509461097,12.933012701892217 Z M 67.75451560848116,22.933661954953635 L 67.65605418263503,21.93852108672425 A 76.45508484249085 76.45508484249085 0 0 0 94.72490708084158,14.034456840351604 L 93.3673755457085,11.359179633944901 L 101.19347581831272,11.312762792775562 L 96.53494912768566,17.60149311556054 L 95.17741759255259,14.926215909153838 A 77.45508484249085 77.45508484249085 0 0 1 67.75451560848116,22.933661954953635"/><text text-anchor="middle" pointer-events="none" font-size="8px" fill="#000000" x="58.04986549573978" y="25.78195700143091" font-family="sans-serif">trek</text></g><g class="relationship" transform="translate(145.3852301274877 50.233122052914986) rotate(419.5911545343584)"><path class="outline" fill="#A5ABB6" stroke="none" d="M 25 0.5 L 48.664890071946424 0.5 L 48.664890071946424 -0.5 L 25 -0.5 Z M 68.00082757194642 0.5 L 91.66571764389285 0.5 L 91.66571764389285 3.5 L 98.66571764389285 0 L 91.66571764389285 -3.5 L 91.66571764389285 -0.5 L 68.00082757194642 -0.5 Z"/><text text-anchor="middle" pointer-events="none" font-size="8px" fill="#000000" x="58.332858821946424" y="3" font-family="sans-serif">trek</text></g><g class="relationship" transform="translate(-10.394820902157754 -60.33774017941537) rotate(355.40452885852574)"><path class="outline" fill="#A5ABB6" stroke="none" d="M 25 0.5 L 51.72727318322207 0.5 L 51.72727318322207 -0.5 L 25 -0.5 Z M 73.73899193322207 0.5 L 100.46626511644413 0.5 L 100.46626511644413 3.5 L 107.46626511644413 0 L 100.46626511644413 -3.5 L 100.46626511644413 -0.5 L 73.73899193322207 -0.5 Z"/><text text-anchor="middle" pointer-events="none" font-size="8px" fill="#000000" x="62.73313255822207" y="3" font-family="sans-serif">road</text></g><g class="relationship" transform="translate(121.64559359197153 -70.9509552492513) rotate(438.91626980194985)"><path class="outline" fill="#A5ABB6" stroke="none" d="M 25 0.5 L 35.01130439418428 0.5 L 35.01130439418428 -0.5 L 25 -0.5 Z M 81.47614814418428 0.5 L 91.48745253836856 0.5 L 91.48745253836856 3.5 L 98.48745253836856 0 L 91.48745253836856 -3.5 L 91.48745253836856 -0.5 L 81.47614814418428 -0.5 Z"/><text text-anchor="middle" pointer-events="none" font-size="8px" fill="#000000" x="58.24372626918428" y="3" font-family="sans-serif">twowheeler</text></g><g class="relationship" transform="translate(72.10677680895428 -28.36312171335399) rotate(201.1845190669871)"><path class="outline" fill="#A5ABB6" stroke="none" d="M 24.018736134675446,6.953439040707552 L 24.277555179777966,5.987513214418485 A 68.41935010764087 68.41935010764087 0 0 0 31.13265746692309,7.452564468517394 L 30.974030871417945,8.439903115182489 A 69.41935010764087 69.41935010764087 0 0 1 24.018736134675446,6.953439040707552 Z M 50.382922866347954,8.809105290137111 L 50.26196038525076,7.8164482102919095 A 68.41935010764087 68.41935010764087 0 0 0 57.167820636661695,6.61316240370188 L 56.50213024768823,3.6879519316113063 L 64.10426013636861,5.54741990811222 L 58.05540782195965,10.513443033155976 L 57.38971743298618,7.588232561065404 A 69.41935010764087 69.41935010764087 0 0 1 50.382922866347954,8.809105290137111"/><text text-anchor="middle" pointer-events="none" font-size="8px" fill="#000000" x="40.675017164706155" y="11.806380229555103" transform="rotate(180 40.675017164706155 8.806380229555103)" font-family="sans-serif">trek</text></g><g class="relationship" transform="translate(-10.394820902157754 -60.33774017941537) rotate(355.40452885852574)"><path class="outline" fill="#A5ABB6" stroke="none" d="M 21.40063509461097,12.933012701892217 L 21.90063509461097,12.06698729810778 A 85.65290728627257 85.65290728627257 0 0 0 52.988678740692166,22.734135752601063 L 52.85163248775153,23.724700401957648 A 86.65290728627257 86.65290728627257 0 0 1 21.40063509461097,12.933012701892217 Z M 72.25280445752686,24.2148820603351 L 72.16595548782159,23.21866057067473 A 85.65290728627257 85.65290728627257 0 0 0 103.75301370607458,14.135034256941609 L 102.38612753006096,11.464524533719677 L 110.21201742292803,11.390718133446823 L 105.57552860742608,17.695713887904184 L 104.20864243141246,15.02520416468225 A 86.65290728627257 86.65290728627257 0 0 1 72.25280445752686,24.2148820603351"/><text text-anchor="middle" pointer-events="none" font-size="8px" fill="#000000" x="62.55108088829972" y="27.014816313221942" font-family="sans-serif">trek</text></g><g class="relationship" transform="translate(121.64559359197153 -70.9509552492513) rotate(438.91626980194985)"><path class="outline" fill="#A5ABB6" stroke="none" d="M 21.40063509461097,-12.933012701892217 L 21.90063509461097,-12.06698729810778 A 76.45508484249085 76.45508484249085 0 0 1 47.19130985197185,-21.20756232220924 L 47.02210112385996,-22.19314256061236 A 77.45508484249085 77.45508484249085 0 0 0 21.40063509461097,-12.933012701892217 Z M 69.093335674248,-22.78943388702369 L 68.97758913318329,-21.79615510529544 A 76.45508484249085 76.45508484249085 0 0 1 94.72490708084158,-14.034456840351604 L 93.3673755457085,-11.359179633944901 L 101.19347581831272,-11.312762792775562 L 96.53494912768566,-17.60149311556054 L 95.17741759255259,-14.926215909153838 A 77.45508484249085 77.45508484249085 0 0 0 69.093335674248,-22.78943388702369"/><text text-anchor="middle" pointer-events="none" font-size="8px" fill="#000000" x="58.04986549573978" y="-19.78195700143091" font-family="sans-serif">road</text></g><g class="relationship" transform="translate(72.10677680895428 -28.36312171335399) rotate(484.1812096542144)"><path class="outline" fill="#A5ABB6" stroke="none" d="M 21.40063509461097,12.933012701892217 L 21.90063509461097,12.06698729810778 A 54.810994436159156 54.810994436159156 0 0 0 38.04004187161969,18.23993288960728 L 37.83449751766361,19.218580690686288 A 55.810994436159156 55.810994436159156 0 0 1 21.40063509461097,12.933012701892217 Z M 57.2359497805117,19.84404807688098 L 57.09386635146813,18.8541933909845 A 54.810994436159156 54.810994436159156 0 0 0 73.59735635440433,13.733595172772715 L 72.26781156371419,11.044299605240443 L 80.09397014376133,11.07953992241778 L 75.37008274199118,17.319322596149078 L 74.04053795130105,14.630027028616807 A 55.810994436159156 55.810994436159156 0 0 1 57.2359497805117,19.84404807688098"/><text text-anchor="middle" pointer-events="none" font-size="8px" fill="#000000" x="47.52393275127122" y="22.881548176664687" transform="rotate(180 47.52393275127122 19.881548176664687)" font-family="sans-serif">trek</text></g><g class="relationship" transform="translate(14.518358275579404 56.43547033991527) rotate(461.73002403268316)"><path class="outline" fill="#A5ABB6" stroke="none" d="M 24.018736134675446,-6.953439040707552 L 24.277555179777966,-5.987513214418485 A 130.98872596851456 130.98872596851456 0 0 1 46.68696222883587,-9.945674265178269 L 46.59922208295437,-10.94181766188413 A 131.98872596851456 131.98872596851456 0 0 0 24.018736134675446,-6.953439040707552 Z M 65.98921270736021,-11.219620280517404 L 65.93004643769656,-10.22137213875402 A 130.98872596851456 130.98872596851456 0 0 1 88.4436503646801,-6.906828216427948 L 87.75052846460582,-3.9879959102415485 L 95.36977939579408,-5.776015833952355 L 89.36781289811248,-10.798604624676482 L 88.6746909980382,-7.879772318490081 A 131.98872596851456 131.98872596851456 0 0 0 65.98921270736021,-11.219620280517404"/><text text-anchor="middle" pointer-events="none" font-size="8px" fill="#000000" x="56.296271418757335" y="-7.937352797969311" transform="rotate(180 56.296271418757335 -10.93735279796931)" font-family="sans-serif">trek</text></g><g class="relationship" transform="translate(-9.815353923052191 173.62922500554478) rotate(370.97089485063117)"><path class="outline" fill="#A5ABB6" stroke="none" d="M 24.018736134675446,-6.953439040707552 L 24.277555179777966,-5.987513214418485 A 116.20267915906514 116.20267915906514 0 0 1 29.641602927227556,-7.289086300728428 L 29.428945018737963,-8.266213014085935 A 117.20267915906514 117.20267915906514 0 0 0 24.018736134675446,-6.953439040707552 Z M 75.77988548169198,-8.971760807374508 L 75.59706659054248,-7.988614199264163 A 116.20267915906514 116.20267915906514 0 0 1 80.99824472078613,-6.850907936073572 L 80.31034604386585,-3.9308402296168663 L 87.92638581533849,-5.732488974335697 L 81.91544295667984,-10.744331544682513 L 81.22754427975956,-7.824263838225807 A 117.20267915906514 117.20267915906514 0 0 0 75.77988548169198,-8.971760807374508"/><text text-anchor="middle" pointer-events="none" font-size="8px" fill="#000000" x="52.576794891381404" y="-7.433505530216877" font-family="sans-serif">twowheeler</text></g><g class="relationship" transform="translate(100.39325871961992 194.99351580814462) rotate(340.4962313021671)"><path class="outline" fill="#A5ABB6" stroke="none" d="M 24.018736134675446,6.953439040707552 L 24.277555179777966,5.987513214418485 A 119.94048464705044 119.94048464705044 0 0 0 43.91262684556713,9.530642334017344 L 43.817514589907475,10.526108887359712 A 120.94048464705044 120.94048464705044 0 0 1 24.018736134675446,6.953439040707552 Z M 63.21070156420767,10.816727719045403 L 63.14546067566672,9.818858175236002 A 119.94048464705044 119.94048464705044 0 0 0 82.87788357324926,6.865675168752096 L 82.18860555084302,3.9459327472656134 L 89.8054955604521,5.743983520051958 L 83.79692093645758,10.758665064067406 L 83.10764291405134,7.838922642580924 A 120.94048464705044 120.94048464705044 0 0 1 63.21070156420767,10.816727719045403"/><text text-anchor="middle" pointer-events="none" font-size="8px" fill="#000000" x="53.51576478895576" y="13.560864821799683" font-family="sans-serif">trek</text></g><g class="relationship" transform="translate(100.39325871961992 194.99351580814462) rotate(340.4962313021671)"><path class="outline" fill="#A5ABB6" stroke="none" d="M 24.018736134675446,-6.953439040707552 L 24.277555179777966,-5.987513214418485 A 119.94048464705044 119.94048464705044 0 0 1 30.566405407435578,-7.492146959699511 L 30.36001945234569,-8.470617622285587 A 120.94048464705044 120.94048464705044 0 0 0 24.018736134675446,-6.953439040707552 Z M 76.7237455651576,-9.16540656715354 L 76.54677166975475,-8.181191021479748 A 119.94048464705044 119.94048464705044 0 0 1 82.87788357324926,-6.865675168752096 L 82.18860555084302,-3.9459327472656134 L 89.8054955604521,-5.743983520051958 L 83.79692093645758,-10.758665064067406 L 83.10764291405134,-7.838922642580924 A 120.94048464705044 120.94048464705044 0 0 0 76.7237455651576,-9.16540656715354"/><text text-anchor="middle" pointer-events="none" font-size="8px" fill="#000000" x="53.51576478895575" y="-7.560864821799683" font-family="sans-serif">twowheeler</text></g><g class="relationship" transform="translate(72.10677680895428 -28.36312171335399) rotate(484.1812096542144)"><path class="outline" fill="#A5ABB6" stroke="none" d="M 25 0.5 L 36.74652389493179 0.5 L 36.74652389493179 -0.5 L 25 -0.5 Z M 58.75824264493179 0.5 L 70.50476653986358 0.5 L 70.50476653986358 3.5 L 77.50476653986358 0 L 70.50476653986358 -3.5 L 70.50476653986358 -0.5 L 58.75824264493179 -0.5 Z"/><text text-anchor="middle" pointer-events="none" font-size="8px" fill="#000000" x="47.75238326993179" y="3" transform="rotate(180 47.75238326993179 0)" font-family="sans-serif">road</text></g><g class="relationship" transform="translate(72.10677680895428 -28.36312171335399) rotate(484.1812096542144)"><path class="outline" fill="#A5ABB6" stroke="none" d="M 21.40063509461097,-12.933012701892217 L 21.90063509461097,-12.06698729810778 A 54.810994436159156 54.810994436159156 0 0 1 22.94170903857373,-12.653017544124545 L 22.460702927567574,-13.529734785414313 A 55.810994436159156 55.810994436159156 0 0 0 21.40063509461097,-12.933012701892217 Z M 72.9442367720655,-15.157231713572301 L 72.52069827936916,-14.251353606316968 A 54.810994436159156 54.810994436159156 0 0 1 73.59735635440433,-13.733595172772715 L 72.26781156371419,-11.044299605240443 L 80.09397014376133,-11.07953992241778 L 75.37008274199118,-17.319322596149078 L 74.04053795130105,-14.630027028616807 A 55.810994436159156 55.810994436159156 0 0 0 72.9442367720655,-15.157231713572301"/><text text-anchor="middle" pointer-events="none" font-size="8px" fill="#000000" x="47.52393275127122" y="-16.881548176664687" transform="rotate(180 47.52393275127122 -19.881548176664687)" font-family="sans-serif">PublicTran…</text></g><g class="relationship" transform="translate(14.518358275579404 56.43547033991527) rotate(461.73002403268316)"><path class="outline" fill="#A5ABB6" stroke="none" d="M 24.018736134675446,6.953439040707552 L 24.277555179777966,5.987513214418485 A 130.98872596851456 130.98872596851456 0 0 0 33.31116609941736,8.06846030583776 L 33.12131185149755,9.050272591637253 A 131.98872596851456 131.98872596851456 0 0 1 24.018736134675446,6.953439040707552 Z M 79.5157805979846,9.71497146424278 L 79.35413157616641,8.728123150799803 A 130.98872596851456 130.98872596851456 0 0 0 88.4436503646801,6.906828216427948 L 87.75052846460582,3.9879959102415485 L 95.36977939579408,5.776015833952355 L 89.36781289811248,10.798604624676482 L 88.6746909980382,7.879772318490081 A 131.98872596851456 131.98872596851456 0 0 1 79.5157805979846,9.71497146424278"/><text text-anchor="middle" pointer-events="none" font-size="8px" fill="#000000" x="56.2962714187574" y="13.93735279796931" transform="rotate(180 56.2962714187574 10.93735279796931)" font-family="sans-serif">twowheeler</text></g><g class="relationship" transform="translate(-9.815353923052191 173.62922500554478) rotate(370.97089485063117)"><path class="outline" fill="#A5ABB6" stroke="none" d="M 24.018736134675446,6.953439040707552 L 24.277555179777966,5.987513214418485 A 116.20267915906514 116.20267915906514 0 0 0 42.97604407288641,9.388743352980853 L 42.878137745359986,10.383938987532318 A 117.20267915906514 117.20267915906514 0 0 1 24.018736134675446,6.953439040707552 Z M 62.27246726097857,10.679156867803641 L 62.20489674399279,9.681442366939649 A 116.20267915906514 116.20267915906514 0 0 0 80.99824472078613,6.850907936073572 L 80.31034604386585,3.9308402296168663 L 87.92638581533849,5.732488974335697 L 81.91544295667984,10.744331544682513 L 81.22754427975956,7.824263838225807 A 117.20267915906514 117.20267915906514 0 0 1 62.27246726097857,10.679156867803641"/><text text-anchor="middle" pointer-events="none" font-size="8px" fill="#000000" x="52.57679489138146" y="13.433505530216877" font-family="sans-serif">trek</text></g><g class="relationship" transform="translate(14.518358275579404 56.43547033991527) rotate(357.2865351326042)"><path class="outline" fill="#A5ABB6" stroke="none" d="M 25 0.5 L 52.338914996246544 0.5 L 52.338914996246544 -0.5 L 25 -0.5 Z M 71.67485249624654 0.5 L 99.01376749249309 0.5 L 99.01376749249309 3.5 L 106.01376749249309 0 L 99.01376749249309 -3.5 L 99.01376749249309 -0.5 L 71.67485249624654 -0.5 Z"/><text text-anchor="middle" pointer-events="none" font-size="8px" fill="#000000" x="62.006883746246544" y="3" font-family="sans-serif">trek</text></g><g class="relationship" transform="translate(14.518358275579404 56.43547033991527) rotate(257.9566923126228)"><path class="outline" fill="#A5ABB6" stroke="none" d="M 25 0.5 L 46.53263675726003 0.5 L 46.53263675726003 -0.5 L 25 -0.5 Z M 65.86857425726004 0.5 L 87.40121101452006 0.5 L 87.40121101452006 3.5 L 94.40121101452006 0 L 87.40121101452006 -3.5 L 87.40121101452006 -0.5 L 65.86857425726004 -0.5 Z"/><text text-anchor="middle" pointer-events="none" font-size="8px" fill="#000000" x="56.20060550726003" y="3" transform="rotate(180 56.20060550726003 0)" font-family="sans-serif">trek</text></g><g class="relationship" transform="translate(-9.815353923052191 173.62922500554478) rotate(424.48269728970206)"><path class="outline" fill="#A5ABB6" stroke="none" d="M 24.018736134675446,-6.953439040707552 L 24.277555179777966,-5.987513214418485 A 126.4040818219666 126.4040818219666 0 0 1 45.53467606094939,-9.774186537731424 L 45.44402500990826,-10.770069255196248 A 127.4040818219666 127.4040818219666 0 0 0 24.018736134675446,-6.953439040707552 Z M 64.83530884114751,-11.053054553338455 L 64.77375688931832,-10.054950672359126 A 126.4040818219666 126.4040818219666 0 0 1 86.13232307380467,-6.8901862961156395 L 85.4407555930762,-3.970985306187253 L 93.05905329709232,-5.763062339403934 L 87.0544130481093,-10.782454282686821 L 86.36284556738083,-7.8632532927584355 A 127.4040818219666 127.4040818219666 0 0 0 64.83530884114751,-11.053054553338455"/><text text-anchor="middle" pointer-events="none" font-size="8px" fill="#000000" x="55.14157056742839" y="-7.781116751645939" font-family="sans-serif">trek</text></g><g class="relationship" transform="translate(40.75249832784022 279.56458976569604) rotate(305.19205114256664)"><path class="outline" fill="#A5ABB6" stroke="none" d="M 21.40063509461097,12.933012701892217 L 21.90063509461097,12.06698729810778 A 55.82880833223468 55.82880833223468 0 0 0 38.52812885394421,18.39378917053987 L 38.32595884989153,19.37313961316056 A 56.82880833223468 56.82880833223468 0 0 1 21.40063509461097,12.933012701892217 Z M 57.72799484619338,19.993025064894987 L 57.5887528698492,19.002766678399944 A 55.82880833223468 55.82880833223468 0 0 0 74.58619964856359,13.75026502162276 L 73.255104047861,11.061736706393365 L 81.0812816508826,11.092463339188274 L 76.36099378283372,17.334969441928617 L 75.02989818213112,14.646441126699223 A 56.82880833223468 56.82880833223468 0 0 1 57.72799484619338,19.993025064894987"/><text text-anchor="middle" pointer-events="none" font-size="8px" fill="#000000" x="48.01627952746254" y="23.017901938963377" font-family="sans-serif">trek</text></g><g class="relationship" transform="translate(-9.815353923052191 173.62922500554478) rotate(424.48269728970206)"><path class="outline" fill="#A5ABB6" stroke="none" d="M 24.018736134675446,6.953439040707552 L 24.277555179777966,5.987513214418485 A 126.4040818219666 126.4040818219666 0 0 0 32.17029668242587,7.833308931583517 L 31.973918196116095,8.813837100538734 A 127.4040818219666 127.4040818219666 0 0 1 24.018736134675446,6.953439040707552 Z M 78.35676357744846,9.490721800033214 L 78.1890811583459,8.504880734585086 A 126.4040818219666 126.4040818219666 0 0 0 86.13232307380467,6.8901862961156395 L 85.4407555930762,3.970985306187253 L 93.05905329709232,5.763062339403934 L 87.0544130481093,10.782454282686821 L 86.36284556738083,7.8632532927584355 A 127.4040818219666 127.4040818219666 0 0 1 78.35676357744846,9.490721800033214"/><text text-anchor="middle" pointer-events="none" font-size="8px" fill="#000000" x="55.14157056742839" y="13.78111675164594" font-family="sans-serif">twowheeler</text></g><g class="relationship" transform="translate(40.75249832784022 279.56458976569604) rotate(305.19205114256664)"><path class="outline" fill="#A5ABB6" stroke="none" d="M 25 0.5 L 37.23698276389712 0.5 L 37.23698276389712 -0.5 L 25 -0.5 Z M 59.24870151389712 0.5 L 71.48568427779423 0.5 L 71.48568427779423 3.5 L 78.48568427779423 0 L 71.48568427779423 -3.5 L 71.48568427779423 -0.5 L 59.24870151389712 -0.5 Z"/><text text-anchor="middle" pointer-events="none" font-size="8px" fill="#000000" x="48.24284213889712" y="3" font-family="sans-serif">road</text></g><g class="relationship" transform="translate(40.75249832784022 279.56458976569604) rotate(305.19205114256664)"><path class="outline" fill="#A5ABB6" stroke="none" d="M 21.40063509461097,-12.933012701892217 L 21.90063509461097,-12.06698729810778 A 55.82880833223468 55.82880833223468 0 0 1 25.814254244994206,-14.124349945957867 L 25.384354597613118,-15.027226622576343 A 56.82880833223468 56.82880833223468 0 0 0 21.40063509461097,-12.933012701892217 Z M 70.92062157647464,-16.482087825383694 L 70.5492327873176,-15.553610379621837 A 55.82880833223468 55.82880833223468 0 0 1 74.58619964856359,-13.75026502162276 L 73.255104047861,-11.061736706393365 L 81.0812816508826,-11.092463339188274 L 76.36099378283372,-17.334969441928617 L 75.02989818213112,-14.646441126699223 A 56.82880833223468 56.82880833223468 0 0 0 70.92062157647464,-16.482087825383694"/><text text-anchor="middle" pointer-events="none" font-size="8px" fill="#000000" x="48.01627952746252" y="-17.017901938963377" font-family="sans-serif">twowheeler</text></g><g class="relationship" transform="translate(40.75249832784022 279.56458976569604) rotate(355.7378732198172)"><path class="outline" fill="#A5ABB6" stroke="none" d="M 25 0.5 L 49.031688529483084 0.5 L 49.031688529483084 -0.5 L 25 -0.5 Z M 68.36762602948309 0.5 L 92.39931455896617 0.5 L 92.39931455896617 3.5 L 99.39931455896617 0 L 92.39931455896617 -3.5 L 92.39931455896617 -0.5 L 68.36762602948309 -0.5 Z"/><text text-anchor="middle" pointer-events="none" font-size="8px" fill="#000000" x="58.699657279483084" y="3" font-family="sans-serif">trek</text></g><g class="relationship" transform="translate(164.80778378773408 270.3192875962234) rotate(290.8370666987871)"><path class="outline" fill="#A5ABB6" stroke="none" d="M 25 0.5 L 47.517336165028595 0.5 L 47.517336165028595 -0.5 L 25 -0.5 Z M 66.8532736650286 0.5 L 89.37060983005719 0.5 L 89.37060983005719 3.5 L 96.37060983005719 0 L 89.37060983005719 -3.5 L 89.37060983005719 -0.5 L 66.8532736650286 -0.5 Z"/><text text-anchor="middle" pointer-events="none" font-size="8px" fill="#000000" x="57.185304915028595" y="3" font-family="sans-serif">trek</text></g></g><g class="layer nodes"><g class="node" transform="translate(72.10677680895428,-28.36312171335399)"><circle class="outline" cx="0" cy="0" r="25" fill="#D9C8AE" stroke="#c0a378" stroke-width="2px"/><text text-anchor="middle" pointer-events="none" font-family="sans-serif" dy="1.5625" font-size="25" fill="#604A0E"/><text text-anchor="middle" pointer-events="none" y="5" font-size="10px" fill="#604A0E" font-family="sans-serif"> Darjeeling</text></g><g class="node" transform="translate(207.98072493169,156.8868315551921)"><circle class="outline" cx="0" cy="0" r="25" fill="#8DCC93" stroke="#5db665" stroke-width="2px"/><text text-anchor="middle" pointer-events="none" font-family="sans-serif" dy="1.5625" font-size="25" fill="#604A0E"/><text text-anchor="middle" pointer-events="none" y="5" font-size="10px" fill="#604A0E" font-family="sans-serif"> Sandak…</text></g><g class="node" transform="translate(100.39325871961992,194.99351580814462)"><circle class="outline" cx="0" cy="0" r="25" fill="#F16667" stroke="#eb2728" stroke-width="2px"/><text text-anchor="middle" pointer-events="none" font-family="sans-serif" dy="1.5625" font-size="25" fill="#FFFFFF"/><text text-anchor="middle" pointer-events="none" y="5" font-size="10px" fill="#FFFFFF" font-family="sans-serif"> Gurdum</text></g><g class="node" transform="translate(-10.394820902157754,-60.33774017941537)"><circle class="outline" cx="0" cy="0" r="25" fill="#F16667" stroke="#eb2728" stroke-width="2px"/><text text-anchor="middle" pointer-events="none" font-family="sans-serif" dy="1.5625" font-size="25" fill="#FFFFFF"/><text text-anchor="middle" pointer-events="none" y="5" font-size="10px" fill="#FFFFFF" font-family="sans-serif"> Tumbling</text></g><g class="node" transform="translate(121.64559359197153,-70.9509552492513)"><circle class="outline" cx="0" cy="0" r="25" fill="#F16667" stroke="#eb2728" stroke-width="2px"/><text text-anchor="middle" pointer-events="none" font-family="sans-serif" dy="1.5625" font-size="25" fill="#FFFFFF"/><text text-anchor="middle" pointer-events="none" y="5" font-size="10px" fill="#FFFFFF" font-family="sans-serif"> Gairibus</text></g><g class="node" transform="translate(145.3852301274877,50.233122052914986)"><circle class="outline" cx="0" cy="0" r="25" fill="#F16667" stroke="#eb2728" stroke-width="2px"/><text text-anchor="middle" pointer-events="none" font-family="sans-serif" dy="1.5625" font-size="25" fill="#FFFFFF"/><text text-anchor="middle" pointer-events="none" y="5" font-size="10px" fill="#FFFFFF" font-family="sans-serif"> BhikeBh…</text></g><g class="node" transform="translate(14.518358275579404,56.43547033991527)"><circle class="outline" cx="0" cy="0" r="25" fill="#D9C8AE" stroke="#c0a378" stroke-width="2px"/><text text-anchor="middle" pointer-events="none" font-family="sans-serif" dy="1.5625" font-size="25" fill="#604A0E"/><text text-anchor="middle" pointer-events="none" y="5" font-size="10px" fill="#604A0E" font-family="sans-serif"> Rimbik</text></g><g class="node" transform="translate(-9.815353923052191,173.62922500554478)"><circle class="outline" cx="0" cy="0" r="25" fill="#F16667" stroke="#eb2728" stroke-width="2px"/><text text-anchor="middle" pointer-events="none" font-family="sans-serif" dy="1.5625" font-size="25" fill="#FFFFFF"/><text text-anchor="middle" pointer-events="none" y="5" font-size="10px" fill="#FFFFFF" font-family="sans-serif"> Sirikhola</text></g><g class="node" transform="translate(40.75249832784022,279.56458976569604)"><circle class="outline" cx="0" cy="0" r="25" fill="#F16667" stroke="#eb2728" stroke-width="2px"/><text text-anchor="middle" pointer-events="none" font-family="sans-serif" dy="1.5625" font-size="25" fill="#FFFFFF"/><text text-anchor="middle" pointer-events="none" y="5" font-size="10px" fill="#FFFFFF" font-family="sans-serif"> Rammam</text></g><g class="node" transform="translate(164.80778378773408,270.3192875962234)"><circle class="outline" cx="0" cy="0" r="25" fill="#8DCC93" stroke="#5db665" stroke-width="2px"/><text text-anchor="middle" pointer-events="none" font-family="sans-serif" dy="1.5625" font-size="25" fill="#604A0E"/><text text-anchor="middle" pointer-events="none" y="5" font-size="10px" fill="#604A0E" font-family="sans-serif"> Sabargr…</text></g></g></svg>