<svg xmlns="http://www.w3.org/2000/svg" width="417.43603515625" height="261.5014953613281" viewBox="-102.08226776123047 -45.48627853393555 417.43603515625 261.5014953613281"><title>Neo4j Graph Visualization</title><desc>Created using Neo4j (http://www.neo4j.com/)</desc><g class="layer relationships"><g class="relationship" transform="translate(56.29911159239071 65.60512213391337) rotate(193.18191275636468)"><path class="outline" fill="#A5ABB6" stroke="none" d="M 24.018736134675446,-6.953439040707552 L 24.277555179777966,-5.987513214418485 A 140.7166501101189 140.7166501101189 0 0 1 49.13634308699482,-10.306568519654462 L 49.05418251043716,-11.303187624257475 A 141.7166501101189 141.7166501101189 0 0 0 24.018736134675446,-6.953439040707552 Z M 68.4415834270365,-11.570582686466082 L 68.38694002959723,-10.572076753025385 A 140.7166501101189 140.7166501101189 0 0 1 93.35538816760011,-6.940249041591726 L 92.65914467507655,-4.0221597696333475 L 100.28030371759026,-5.8020291043631165 L 94.2837128242982,-10.83103473753623 L 93.58746933177464,-7.9129454655778515 A 141.7166501101189 141.7166501101189 0 0 0 68.4415834270365,-11.570582686466082"/><text text-anchor="middle" pointer-events="none" font-size="8px" fill="#000000" x="58.7502000308701" y="-8.26888724188052" transform="rotate(180 58.7502000308701 -11.26888724188052)" font-family="sans-serif">trek</text></g><g class="relationship" transform="translate(56.29911159239071 65.60512213391337) rotate(505.32559177365664)"><path class="outline" fill="#A5ABB6" stroke="none" d="M 24.018736134675446,-6.953439040707552 L 24.277555179777966,-5.987513214418485 A 95.89608225568239 95.89608225568239 0 0 1 24.662056969582014,-6.089685773204494 L 24.407247491718945,-7.056677050306391 A 96.89608225568239 96.89608225568239 0 0 0 24.018736134675446,-6.953439040707552 Z M 70.65585047791137,-7.826354943432122 L 70.43335889354826,-6.851420332861963 A 95.89608225568239 95.89608225568239 0 0 1 70.82104756527299,-6.762098712031831 L 70.14144441248457,-3.8400892057639204 L 77.75233693869619,-5.663359606570166 L 71.72718510232421,-10.658111387055712 L 71.0475819495358,-7.7361018807878015 A 96.89608225568239 96.89608225568239 0 0 0 70.65585047791137,-7.826354943432122"/><text text-anchor="middle" pointer-events="none" font-size="8px" fill="#000000" x="47.49326811550057" y="-6.741746707286467" transform="rotate(180 47.49326811550057 -9.741746707286467)" font-family="sans-serif">twowheeler</text></g><g class="relationship" transform="translate(56.29911159239071 65.60512213391337) rotate(193.18191275636468)"><path class="outline" fill="#A5ABB6" stroke="none" d="M 24.018736134675446,6.953439040707552 L 24.277555179777966,5.987513214418485 A 140.7166501101189 140.7166501101189 0 0 0 35.73961348098102,8.551295275405039 L 35.56224931909405,9.535440566547607 A 141.7166501101189 141.7166501101189 0 0 1 24.018736134675446,6.953439040707552 Z M 81.97713758423183,10.175604350669715 L 81.82698279736385,9.186941850126374 A 140.7166501101189 140.7166501101189 0 0 0 93.35538816760011,6.940249041591726 L 92.65914467507655,4.0221597696333475 L 100.28030371759026,5.8020291043631165 L 94.2837128242982,10.83103473753623 L 93.58746933177464,7.9129454655778515 A 141.7166501101189 141.7166501101189 0 0 1 81.97713758423183,10.175604350669715"/><text text-anchor="middle" pointer-events="none" font-size="8px" fill="#000000" x="58.75020003087011" y="14.26888724188052" transform="rotate(180 58.75020003087011 11.26888724188052)" font-family="sans-serif">twowheeler</text></g><g class="relationship" transform="translate(56.29911159239071 65.60512213391337) rotate(505.32559177365664)"><path class="outline" fill="#A5ABB6" stroke="none" d="M 24.018736134675446,6.953439040707552 L 24.277555179777966,5.987513214418485 A 95.89608225568239 95.89608225568239 0 0 0 37.90923063434266,8.60020964998266 L 37.79256208312809,9.593380556301156 A 96.89608225568239 96.89608225568239 0 0 1 24.018736134675446,6.953439040707552 Z M 57.19353908145686,9.91625524086433 L 57.109983056541154,8.919752159734983 A 95.89608225568239 95.89608225568239 0 0 0 70.82104756527299,6.762098712031831 L 70.14144441248457,3.8400892057639204 L 77.75233693869619,5.663359606570166 L 71.72718510232421,10.658111387055712 L 71.0475819495358,7.7361018807878015 A 96.89608225568239 96.89608225568239 0 0 1 57.19353908145686,9.91625524086433"/><text text-anchor="middle" pointer-events="none" font-size="8px" fill="#000000" x="47.49326811550057" y="12.741746707286467" transform="rotate(180 47.49326811550057 9.741746707286467)" font-family="sans-serif">trek</text></g><g class="relationship" transform="translate(274.9157839310558 72.54590187883608) rotate(232.30937292820653)"><path class="outline" fill="#A5ABB6" stroke="none" d="M 21.40063509461097,-12.933012701892217 L 21.90063509461097,-12.06698729810778 A 65.1628551188094 65.1628551188094 0 0 1 30.11087226664617,-16.068087665946706 L 29.736867930234972,-16.995514620669077 A 66.1628551188094 66.1628551188094 0 0 0 21.40063509461097,-12.933012701892217 Z M 75.56483496194552,-18.348254043592966 L 75.24618528653366,-17.40038148656859 A 65.1628551188094 65.1628551188094 0 0 1 83.6781292727887,-13.890521206265825 L 82.33398620697885,-11.208492232030961 L 90.16022072363835,-11.201192215082004 L 85.47032002720182,-17.466559838578977 L 84.12617696139198,-14.784530864344115 A 66.1628551188094 66.1628551188094 0 0 0 75.56483496194552,-18.348254043592966"/><text text-anchor="middle" pointer-events="none" font-size="8px" fill="#000000" x="52.54468538595319" y="-18.26856719758004" transform="rotate(180 52.54468538595319 -21.26856719758004)" font-family="sans-serif">twowheeler</text></g><g class="relationship" transform="translate(274.9157839310558 72.54590187883608) rotate(232.30937292820653)"><path class="outline" fill="#A5ABB6" stroke="none" d="M 25 0.5 L 41.74937171279776 0.5 L 41.74937171279776 -0.5 L 25 -0.5 Z M 63.76109046279776 0.5 L 80.51046217559552 0.5 L 80.51046217559552 3.5 L 87.51046217559552 0 L 80.51046217559552 -3.5 L 80.51046217559552 -0.5 L 63.76109046279776 -0.5 Z"/><text text-anchor="middle" pointer-events="none" font-size="8px" fill="#000000" x="52.75523108779776" y="3" transform="rotate(180 52.75523108779776 0)" font-family="sans-serif">road</text></g><g class="relationship" transform="translate(274.9157839310558 72.54590187883608) rotate(232.30937292820653)"><path class="outline" fill="#A5ABB6" stroke="none" d="M 21.40063509461097,12.933012701892217 L 21.90063509461097,12.06698729810778 A 65.1628551188094 65.1628551188094 0 0 0 43.02467935448132,19.781988780563324 L 42.84885244697943,20.76640987877198 A 66.1628551188094 66.1628551188094 0 0 1 21.40063509461097,12.933012701892217 Z M 62.253256420462925,21.339184626015495 L 62.13580088211754,20.34610648381721 A 65.1628551188094 65.1628551188094 0 0 0 83.6781292727887,13.890521206265825 L 82.33398620697885,11.208492232030961 L 90.16022072363835,11.201192215082004 L 85.47032002720182,17.466559838578977 L 84.12617696139198,14.784530864344115 A 66.1628551188094 66.1628551188094 0 0 1 62.253256420462925,21.339184626015495"/><text text-anchor="middle" pointer-events="none" font-size="8px" fill="#000000" x="52.54468538595317" y="24.26856719758004" transform="rotate(180 52.54468538595317 21.26856719758004)" font-family="sans-serif">trek</text></g><g class="relationship" transform="translate(181.63749350584376 142.91279743538968) rotate(231.36351936835734)"><path class="outline" fill="#A5ABB6" stroke="none" d="M 25 0.5 L 33.71300712331488 0.5 L 33.71300712331488 -0.5 L 25 -0.5 Z M 53.04894462331488 0.5 L 61.76195174662976 0.5 L 61.76195174662976 3.5 L 68.76195174662976 0 L 61.76195174662976 -3.5 L 61.76195174662976 -0.5 L 53.04894462331488 -0.5 Z"/><text text-anchor="middle" pointer-events="none" font-size="8px" fill="#000000" x="43.38097587331488" y="3" transform="rotate(180 43.38097587331488 0)" font-family="sans-serif">trek</text></g><g class="relationship" transform="translate(181.63749350584376 142.91279743538968) rotate(211.66594152605984)"><path class="outline" fill="#A5ABB6" stroke="none" d="M 24.018736134675446,-6.953439040707552 L 24.277555179777966,-5.987513214418485 A 185.45340080705725 185.45340080705725 0 0 1 60.46113252687882,-11.929923820462989 L 60.3974222109214,-12.927892254653472 A 186.45340080705725 186.45340080705725 0 0 0 24.018736134675446,-6.953439040707552 Z M 79.77527713516511,-13.155827862424815 L 79.73505877596635,-12.156636947942843 A 185.45340080705725 185.45340080705725 0 0 1 116.04840280451273,-7.066984807678679 L 115.34032235961902,-4.151745180553812 L 122.96864200861971,-5.900670374114181 L 116.992510064371,-10.953970977178502 L 116.2844296194773,-8.038731350053634 A 186.45340080705725 186.45340080705725 0 0 0 79.77527713516511,-13.155827862424815"/><text text-anchor="middle" pointer-events="none" font-size="8px" fill="#000000" x="70.08926727116234" y="-9.793821616315853" transform="rotate(180 70.08926727116234 -12.793821616315853)" font-family="sans-serif">trek</text></g><g class="relationship" transform="translate(181.63749350584376 142.91279743538968) rotate(211.66594152605984)"><path class="outline" fill="#A5ABB6" stroke="none" d="M 24.018736134675446,6.953439040707552 L 24.277555179777966,5.987513214418485 A 185.45340080705725 185.45340080705725 0 0 0 47.004025573857255,10.576634474755593 L 46.86775197842122,11.567305715474191 A 186.45340080705725 186.45340080705725 0 0 1 24.018736134675446,6.953439040707552 Z M 93.33320780887645,12.113864246152332 L 93.22027460181208,11.120261664260482 A 185.45340080705725 185.45340080705725 0 0 0 116.04840280451273,7.066984807678679 L 115.34032235961902,4.151745180553812 L 122.96864200861971,5.900670374114181 L 116.992510064371,10.953970977178502 L 116.2844296194773,8.038731350053634 A 186.45340080705725 186.45340080705725 0 0 1 93.33320780887645,12.113864246152332"/><text text-anchor="middle" pointer-events="none" font-size="8px" fill="#000000" x="70.08926727116236" y="15.793821616315853" transform="rotate(180 70.08926727116236 12.793821616315853)" font-family="sans-serif">twowheeler</text></g><g class="relationship" transform="translate(181.63749350584376 142.91279743538968) rotate(322.96997742157106)"><path class="outline" fill="#A5ABB6" stroke="none" d="M 25 0.5 L 45.253644234659035 0.5 L 45.253644234659035 -0.5 L 25 -0.5 Z M 64.58958173465903 0.5 L 84.84322596931807 0.5 L 84.84322596931807 3.5 L 91.84322596931807 0 L 84.84322596931807 -3.5 L 84.84322596931807 -0.5 L 64.58958173465903 -0.5 Z"/><text text-anchor="middle" pointer-events="none" font-size="8px" fill="#000000" x="54.921612984659035" y="3" font-family="sans-serif">trek</text></g><g class="relationship" transform="translate(286.35376297248786 178.92268302330234) rotate(198.97709569926235)"><path class="outline" fill="#A5ABB6" stroke="none" d="M 21.40063509461097,12.933012701892217 L 21.90063509461097,12.06698729810778 A 63.330387183892114 63.330387183892114 0 0 0 42.139291372644955,19.51229129842713 L 41.95886396927645,20.495879602604084 A 64.33038718389211 64.33038718389211 0 0 1 21.40063509461097,12.933012701892217 Z M 61.36312920699368,21.077357783043475 L 61.24192209381173,20.084730543988407 A 63.330387183892114 63.330387183892114 0 0 0 81.89008194924934,13.86466188022998 L 80.54834437955247,11.18142870101056 L 88.3745822957108,11.181146414140532 L 83.67906537551181,17.442306119189205 L 82.33732780581495,14.759072939969785 A 64.33038718389211 64.33038718389211 0 0 1 61.36312920699368,21.077357783043475"/><text text-anchor="middle" pointer-events="none" font-size="8px" fill="#000000" x="51.653912763283756" y="24.023010050120057" transform="rotate(180 51.653912763283756 21.023010050120057)" font-family="sans-serif">trek</text></g><g class="relationship" transform="translate(286.35376297248786 178.92268302330234) rotate(263.86294879190757)"><path class="outline" fill="#A5ABB6" stroke="none" d="M 24.018736134675446,-6.953439040707552 L 24.277555179777966,-5.987513214418485 A 105.68292112004525 105.68292112004525 0 0 1 39.02328401861974,-8.833924690522508 L 38.903992994531066,-9.826784021733062 A 106.68292112004525 106.68292112004525 0 0 0 24.018736134675446,-6.953439040707552 Z M 60.97698476519801,-10.178343367849465 L 60.88937302041866,-9.182188669935172 A 105.68292112004525 105.68292112004525 0 0 1 75.71826987893671,-6.8068160171962 L 75.0344897075731,-3.8857811531026614 L 82.6479812570489,-5.698168094696712 L 76.62997677408819,-10.701529169320919 L 75.94619660272458,-7.780494305227379 A 106.68292112004525 106.68292112004525 0 0 0 60.97698476519801,-10.178343367849465"/><text text-anchor="middle" pointer-events="none" font-size="8px" fill="#000000" x="49.93933348777733" y="-7.075106098554599" transform="rotate(180 49.93933348777733 -10.075106098554599)" font-family="sans-serif">road</text></g><g class="relationship" transform="translate(286.35376297248786 178.92268302330234) rotate(198.97709569926235)"><path class="outline" fill="#A5ABB6" stroke="none" d="M 25 0.5 L 40.861570019602965 0.5 L 40.861570019602965 -0.5 L 25 -0.5 Z M 62.873288769602965 0.5 L 78.73485878920593 0.5 L 78.73485878920593 3.5 L 85.73485878920593 0 L 78.73485878920593 -3.5 L 78.73485878920593 -0.5 L 62.873288769602965 -0.5 Z"/><text text-anchor="middle" pointer-events="none" font-size="8px" fill="#000000" x="51.867429394602965" y="3" transform="rotate(180 51.867429394602965 0)" font-family="sans-serif">road</text></g><g class="relationship" transform="translate(286.35376297248786 178.92268302330234) rotate(263.86294879190757)"><path class="outline" fill="#A5ABB6" stroke="none" d="M 24.018736134675446,6.953439040707552 L 24.277555179777966,5.987513214418485 A 105.68292112004525 105.68292112004525 0 0 0 40.34633199212898,8.98443838518655 L 40.239560001006915,9.978721917138998 A 106.68292112004525 106.68292112004525 0 0 1 24.018736134675446,6.953439040707552 Z M 59.637256541549625,10.287671496009409 L 59.562202835204005,9.290492003057523 A 105.68292112004525 105.68292112004525 0 0 0 75.71826987893671,6.8068160171962 L 75.0344897075731,3.8857811531026614 L 82.6479812570489,5.698168094696712 L 76.62997677408819,10.701529169320919 L 75.94619660272458,7.780494305227379 A 106.68292112004525 106.68292112004525 0 0 1 59.637256541549625,10.287671496009409"/><text text-anchor="middle" pointer-events="none" font-size="8px" fill="#000000" x="49.939333487777375" y="13.075106098554599" transform="rotate(180 49.939333487777375 10.075106098554599)" font-family="sans-serif">trek</text></g><g class="relationship" transform="translate(286.35376297248786 178.92268302330234) rotate(198.97709569926235)"><path class="outline" fill="#A5ABB6" stroke="none" d="M 21.40063509461097,-12.933012701892217 L 21.90063509461097,-12.06698729810778 A 63.330387183892114 63.330387183892114 0 0 1 22.45565484160387,-12.383705317586013 L 21.964418718972585,-13.254731764843605 A 64.33038718389211 64.33038718389211 0 0 0 21.40063509461097,-12.933012701892217 Z M 81.75529152107472,-15.046455774896366 L 81.31709327498092,-14.147577419878118 A 63.330387183892114 63.330387183892114 0 0 1 81.89008194924934,-13.86466188022998 L 80.54834437955247,-11.18142870101056 L 88.3745822957108,-11.181146414140532 L 83.67906537551181,-17.442306119189205 L 82.33732780581495,-14.759072939969785 A 64.33038718389211 64.33038718389211 0 0 0 81.75529152107472,-15.046455774896366"/><text text-anchor="middle" pointer-events="none" font-size="8px" fill="#000000" x="51.65391276328374" y="-18.023010050120057" transform="rotate(180 51.65391276328374 -21.023010050120057)" font-family="sans-serif">PublicTransport</text></g><g class="relationship" transform="translate(-27.669735123160077 123.69243715603446) rotate(398.9391673088164)"><path class="outline" fill="#A5ABB6" stroke="none" d="M 24.018736134675446,6.953439040707552 L 24.277555179777966,5.987513214418485 A 93.18824056375992 93.18824056375992 0 0 0 24.43306168853441,6.029037153463605 L 24.175911378755313,6.995408571801562 A 94.18824056375992 94.18824056375992 0 0 1 24.018736134675446,6.953439040707552 Z M 69.53650804803587,7.759782355306967 L 69.31206324150557,6.785295552511997 A 93.18824056375992 93.18824056375992 0 0 0 69.46888050757067,6.74903459770801 L 68.79049768492648,3.826741534727963 L 76.40062812496481,5.6531901887015765 L 70.37339093776292,10.645425348348072 L 69.69500811511872,7.723132285368025 A 94.18824056375992 94.18824056375992 0 0 1 69.53650804803587,7.759782355306967"/><text text-anchor="middle" pointer-events="none" font-size="8px" fill="#000000" x="46.81792528345487" y="12.649526582502759" font-family="sans-serif">twowhee…</text></g><g class="relationship" transform="translate(-27.669735123160077 123.69243715603446) rotate(398.9391673088164)"><path class="outline" fill="#A5ABB6" stroke="none" d="M 24.018736134675446,-6.953439040707552 L 24.277555179777966,-5.987513214418485 A 93.18824056375992 93.18824056375992 0 0 1 37.236750404400084,-8.492201431039106 L 37.11699606473918,-9.485004985692484 A 94.18824056375992 94.18824056375992 0 0 0 24.018736134675446,-6.953439040707552 Z M 56.518889903994086,-9.811947312073414 L 56.43265362610947,-8.815672598765588 A 93.18824056375992 93.18824056375992 0 0 1 69.46888050757067,-6.74903459770801 L 68.79049768492648,-3.826741534727963 L 76.40062812496481,-5.6531901887015765 L 70.37339093776292,-10.645425348348072 L 69.69500811511872,-7.723132285368025 A 94.18824056375992 94.18824056375992 0 0 0 56.518889903994086,-9.811947312073414"/><text text-anchor="middle" pointer-events="none" font-size="8px" fill="#000000" x="46.81792528345485" y="-6.649526582502759" font-family="sans-serif">trek</text></g><g class="relationship" transform="translate(123.09468080825393 69.67317238997973) rotate(481.6736128967443)"><path class="outline" fill="#A5ABB6" stroke="none" d="M 25 0.5 L 55.77136547954338 0.5 L 55.77136547954338 -0.5 L 25 -0.5 Z M 75.10730297954338 0.5 L 105.87866845908675 0.5 L 105.87866845908675 3.5 L 112.87866845908675 0 L 105.87866845908675 -3.5 L 105.87866845908675 -0.5 L 75.10730297954338 -0.5 Z"/><text text-anchor="middle" pointer-events="none" font-size="8px" fill="#000000" x="65.43933422954338" y="3" transform="rotate(180 65.43933422954338 0)" font-family="sans-serif">trek</text></g><g class="relationship" transform="translate(206.12715772332714 -16.486277716069385) rotate(493.94119078516593)"><path class="outline" fill="#A5ABB6" stroke="none" d="M 21.40063509461097,12.933012701892217 L 21.90063509461097,12.06698729810778 A 72.5213936742494 72.5213936742494 0 0 0 46.59076375469983,20.85403729751836 L 46.431216790820336,21.841227636975162 A 73.5213936742494 73.5213936742494 0 0 1 21.40063509461097,12.933012701892217 Z M 65.83520667900892,22.38143051822955 L 65.73083060064901,21.386892618365394 A 72.5213936742494 72.5213936742494 0 0 0 90.8715967910374,13.987123952784936 L 89.51846787822737,11.309617249652796 L 97.3446339171474,11.276074273416892 L 92.67576867478411,17.557132890294458 L 91.32263976197407,14.879626187162318 A 73.5213936742494 73.5213936742494 0 0 1 65.83520667900892,22.38143051822955"/><text text-anchor="middle" pointer-events="none" font-size="8px" fill="#000000" x="56.12921947240039" y="25.254730425772422" transform="rotate(180 56.12921947240039 22.254730425772422)" font-family="sans-serif">trek</text></g><g class="relationship" transform="translate(206.12715772332714 -16.486277716069385) rotate(493.94119078516593)"><path class="outline" fill="#A5ABB6" stroke="none" d="M 25 0.5 L 45.322735513290944 0.5 L 45.322735513290944 -0.5 L 25 -0.5 Z M 67.33445426329095 0.5 L 87.65718977658189 0.5 L 87.65718977658189 3.5 L 94.65718977658189 0 L 87.65718977658189 -3.5 L 87.65718977658189 -0.5 L 67.33445426329095 -0.5 Z"/><text text-anchor="middle" pointer-events="none" font-size="8px" fill="#000000" x="56.328594888290944" y="3" transform="rotate(180 56.328594888290944 0)" font-family="sans-serif">road</text></g><g class="relationship" transform="translate(206.12715772332714 -16.486277716069385) rotate(493.94119078516593)"><path class="outline" fill="#A5ABB6" stroke="none" d="M 21.40063509461097,-12.933012701892217 L 21.90063509461097,-12.06698729810778 A 72.5213936742494 72.5213936742494 0 0 1 33.56716743975866,-17.485364755506822 L 33.22803765686386,-18.42610435303301 A 73.5213936742494 73.5213936742494 0 0 0 21.40063509461097,-12.933012701892217 Z M 79.20794064402806,-19.706174906387744 L 78.92167554946873,-18.748024450750975 A 72.5213936742494 72.5213936742494 0 0 1 90.8715967910374,-13.987123952784936 L 89.51846787822737,-11.309617249652796 L 97.3446339171474,-11.276074273416892 L 92.67576867478411,-17.557132890294458 L 91.32263976197407,-14.879626187162318 A 73.5213936742494 73.5213936742494 0 0 0 79.20794064402806,-19.706174906387744"/><text text-anchor="middle" pointer-events="none" font-size="8px" fill="#000000" x="56.12921947240039" y="-19.254730425772422" transform="rotate(180 56.12921947240039 -22.254730425772422)" font-family="sans-serif">twowheeler</text></g><g class="relationship" transform="translate(-65.01557015042432 37.19142109513795) rotate(426.64827418269823)"><path class="outline" fill="#A5ABB6" stroke="none" d="M 21.40063509461097,12.933012701892217 L 21.90063509461097,12.06698729810778 A 46.18245609327522 46.18245609327522 0 0 0 33.92499022086121,16.90866220450971 L 33.6853565188763,17.879525577427344 A 47.18245609327522 47.18245609327522 0 0 1 21.40063509461097,12.933012701892217 Z M 53.07718409297572,18.556339465433396 L 52.905821225901924,17.57113148343759 A 46.18245609327522 46.18245609327522 0 0 0 65.23847428001459,13.579565281011819 L 63.92325983378372,10.883232408307553 L 71.74912005736302,10.960120385257188 L 66.99209354165573,17.174675777950842 L 65.67687909542487,14.478342905246576 A 47.18245609327522 47.18245609327522 0 0 1 53.07718409297572,18.556339465433396"/><text text-anchor="middle" pointer-events="none" font-size="8px" fill="#000000" x="43.36354275150153" y="21.72585602123136" font-family="sans-serif">trek</text></g><g class="relationship" transform="translate(-65.01557015042432 37.19142109513795) rotate(426.64827418269823)"><path class="outline" fill="#A5ABB6" stroke="none" d="M 25 0.5 L 32.60342095661596 0.5 L 32.60342095661596 -0.5 L 25 -0.5 Z M 54.61513970661596 0.5 L 62.218560663231926 0.5 L 62.218560663231926 3.5 L 69.21856066323193 0 L 62.218560663231926 -3.5 L 62.218560663231926 -0.5 L 54.61513970661596 -0.5 Z"/><text text-anchor="middle" pointer-events="none" font-size="8px" fill="#000000" x="43.60928033161596" y="3" font-family="sans-serif">road</text></g><g class="relationship" transform="translate(-65.01557015042432 37.19142109513795) rotate(426.64827418269823)"><path class="outline" fill="#A5ABB6" stroke="none" d="M 21.40063509461097,-12.933012701892217 L 21.90063509461097,-12.06698729810778 A 46.18245609327522 46.18245609327522 0 0 1 21.923871229792148,-12.080393690308874 L 21.42437436750172,-12.94670938597762 A 47.18245609327522 47.18245609327522 0 0 0 21.40063509461097,-12.933012701892217 Z M 65.65224266764002,-14.49035117982369 L 65.21436000452584,-13.591319048393437 A 46.18245609327522 46.18245609327522 0 0 1 65.23847428001459,-13.579565281011819 L 63.92325983378372,-10.883232408307553 L 71.74912005736302,-10.960120385257188 L 66.99209354165573,-17.174675777950842 L 65.67687909542487,-14.478342905246576 A 47.18245609327522 47.18245609327522 0 0 0 65.65224266764002,-14.49035117982369"/><text text-anchor="middle" pointer-events="none" font-size="8px" fill="#000000" x="43.36354275150151" y="-15.725856021231351" font-family="sans-serif">twowhee…</text></g><g class="relationship" transform="translate(-65.01557015042432 37.19142109513795) rotate(453.56492761576885)"><path class="outline" fill="#A5ABB6" stroke="none" d="M 25 0.5 L 51.698174505321674 0.5 L 51.698174505321674 -0.5 L 25 -0.5 Z M 71.03411200532167 0.5 L 97.73228651064335 0.5 L 97.73228651064335 3.5 L 104.73228651064335 0 L 97.73228651064335 -3.5 L 97.73228651064335 -0.5 L 71.03411200532167 -0.5 Z"/><text text-anchor="middle" pointer-events="none" font-size="8px" fill="#000000" x="61.366143255321674" y="3" transform="rotate(180 61.366143255321674 0)" font-family="sans-serif">trek</text></g><g class="relationship" transform="translate(-73.08227016155466 166.67267268860255) rotate(369.33284265119397)"><path class="outline" fill="#A5ABB6" stroke="none" d="M 25 0.5 L 49.552087923576416 0.5 L 49.552087923576416 -0.5 L 25 -0.5 Z M 68.88802542357641 0.5 L 93.44011334715283 0.5 L 93.44011334715283 3.5 L 100.44011334715283 0 L 93.44011334715283 -3.5 L 93.44011334715283 -0.5 L 68.88802542357641 -0.5 Z"/><text text-anchor="middle" pointer-events="none" font-size="8px" fill="#000000" x="59.220056673576416" y="3" font-family="sans-serif">trek</text></g></g><g class="layer nodes"><g class="node" transform="translate(56.29911159239071,65.60512213391337)"><circle class="outline" cx="0" cy="0" r="25" fill="#F16667" stroke="#eb2728" stroke-width="2px"/><text text-anchor="middle" pointer-events="none" font-family="sans-serif" dy="1.5625" font-size="25" fill="#FFFFFF"/><text text-anchor="middle" pointer-events="none" y="5" font-size="10px" fill="#FFFFFF" font-family="sans-serif"> Sirikhola</text></g><g class="node" transform="translate(274.9157839310558,72.54590187883608)"><circle class="outline" cx="0" cy="0" r="25" fill="#F16667" stroke="#eb2728" stroke-width="2px"/><text text-anchor="middle" pointer-events="none" font-family="sans-serif" dy="1.5625" font-size="25" fill="#FFFFFF"/><text text-anchor="middle" pointer-events="none" y="5" font-size="10px" fill="#FFFFFF" font-family="sans-serif"> Tumbling</text></g><g class="node" transform="translate(181.63749350584376,142.91279743538968)"><circle class="outline" cx="0" cy="0" r="25" fill="#D9C8AE" stroke="#c0a378" stroke-width="2px"/><text text-anchor="middle" pointer-events="none" font-family="sans-serif" dy="1.5625" font-size="25" fill="#604A0E"/><text text-anchor="middle" pointer-events="none" y="5" font-size="10px" fill="#604A0E" font-family="sans-serif"> Rimbik</text></g><g class="node" transform="translate(286.35376297248786,178.92268302330234)"><circle class="outline" cx="0" cy="0" r="25" fill="#D9C8AE" stroke="#c0a378" stroke-width="2px"/><text text-anchor="middle" pointer-events="none" font-family="sans-serif" dy="1.5625" font-size="25" fill="#604A0E"/><text text-anchor="middle" pointer-events="none" y="5" font-size="10px" fill="#604A0E" font-family="sans-serif"> Darjeeling</text></g><g class="node" transform="translate(-27.669735123160077,123.69243715603446)"><circle class="outline" cx="0" cy="0" r="25" fill="#F16667" stroke="#eb2728" stroke-width="2px"/><text text-anchor="middle" pointer-events="none" font-family="sans-serif" dy="1.5625" font-size="25" fill="#FFFFFF"/><text text-anchor="middle" pointer-events="none" y="5" font-size="10px" fill="#FFFFFF" font-family="sans-serif"> Gurdum</text></g><g class="node" transform="translate(123.09468080825393,69.67317238997973)"><circle class="outline" cx="0" cy="0" r="25" fill="#F16667" stroke="#eb2728" stroke-width="2px"/><text text-anchor="middle" pointer-events="none" font-family="sans-serif" dy="1.5625" font-size="25" fill="#FFFFFF"/><text text-anchor="middle" pointer-events="none" y="5" font-size="10px" fill="#FFFFFF" font-family="sans-serif"> BhikeBh…</text></g><g class="node" transform="translate(206.12715772332714,-16.486277716069385)"><circle class="outline" cx="0" cy="0" r="25" fill="#F16667" stroke="#eb2728" stroke-width="2px"/><text text-anchor="middle" pointer-events="none" font-family="sans-serif" dy="1.5625" font-size="25" fill="#FFFFFF"/><text text-anchor="middle" pointer-events="none" y="5" font-size="10px" fill="#FFFFFF" font-family="sans-serif"> Gairibus</text></g><g class="node" transform="translate(-65.01557015042432,37.19142109513795)"><circle class="outline" cx="0" cy="0" r="25" fill="#F16667" stroke="#eb2728" stroke-width="2px"/><text text-anchor="middle" pointer-events="none" font-family="sans-serif" dy="1.5625" font-size="25" fill="#FFFFFF"/><text text-anchor="middle" pointer-events="none" y="5" font-size="10px" fill="#FFFFFF" font-family="sans-serif"> Rammam</text></g><g class="node" transform="translate(50.69738249183955,187.01522969483042)"><circle class="outline" cx="0" cy="0" r="25" fill="#8DCC93" stroke="#5db665" stroke-width="2px"/><text text-anchor="middle" pointer-events="none" font-family="sans-serif" dy="1.5625" font-size="25" fill="#604A0E"/><text text-anchor="middle" pointer-events="none" y="5" font-size="10px" fill="#604A0E" font-family="sans-serif"> Sandak…</text></g><g class="node" transform="translate(-73.08227016155466,166.67267268860255)"><circle class="outline" cx="0" cy="0" r="25" fill="#8DCC93" stroke="#5db665" stroke-width="2px"/><text text-anchor="middle" pointer-events="none" font-family="sans-serif" dy="1.5625" font-size="25" fill="#604A0E"/><text text-anchor="middle" pointer-events="none" y="5" font-size="10px" fill="#604A0E" font-family="sans-serif"> Sabargr…</text></g></g></svg>