<svg xmlns="http://www.w3.org/2000/svg" width="323.3666687011719" height="375.3892822265625" viewBox="-99.38545989990234 -95.31564331054688 323.3666687011719 375.3892822265625"><title>Neo4j Graph Visualization</title><desc>Created using Neo4j (http://www.neo4j.com/)</desc><g class="layer relationships"><g class="relationship" transform="translate(-16.237636058496115 36.6228501490572) rotate(406.1497426838796)"><path class="outline" fill="#FFE081" stroke="none" d="M 5.987513214418485,-24.277555179777966 L 6.953439040707552,-24.018736134675446 A 110.0571280341033 110.0571280341033 0 0 1 97.13443307008255,-104.4031468982856 L 96.98790890945779,-105.39235399002787 A 111.0571280341033 111.0571280341033 0 0 0 5.987513214418485,-24.277555179777966 Z M 123.0535818245078,-106.15835751430932 L 122.96540089797196,-105.16225303977099 A 110.0571280341033 110.0571280341033 0 0 1 217.71127290375475,-30.21237034604569 L 214.86409307832804,-29.267083595010284 L 220.3914719604085,-23.726498545222583 L 221.50751267099037,-31.47275268075957 L 218.66033284556366,-30.527465929724162 A 111.0571280341033 111.0571280341033 0 0 0 123.0535818245078,-106.15835751430932"/><text text-anchor="middle" pointer-events="none" font-size="8px" fill="#000000" x="110.01287191942903" y="-103.0432745046873" font-family="sans-serif">108.0</text></g><g class="relationship" transform="translate(92.37404361050605 -30.91375998306556) rotate(508.12594057692024)"><path class="outline" fill="#FFE081" stroke="none" d="M 5.987513214418485,24.277555179777966 L 6.953439040707552,24.018736134675446 A 57.39085418683397 57.39085418683397 0 0 0 48.836975901550275,64.9327987177671 L 48.60084469940972,65.90451989967869 A 58.39085418683397 58.39085418683397 0 0 1 5.987513214418485,24.277555179777966 Z M 70.20249165235673,67.0305729068624 L 70.06867370314853,66.03956697526073 A 57.39085418683397 57.39085418683397 0 0 0 115.97918972320664,29.70204235127591 L 113.17784916868985,28.62850096985666 L 118.95100970560435,23.344504620973268 L 119.71431046256237,31.13343085983491 L 116.91296990804557,30.05988947841566 A 58.39085418683397 58.39085418683397 0 0 1 70.20249165235673,67.0305729068624"/><text text-anchor="middle" pointer-events="none" font-size="8px" fill="#000000" x="59.3750983110432" y="69.97724961990431" transform="rotate(180 59.3750983110432 66.97724961990431)" font-family="sans-serif">88.5</text></g><g class="relationship" transform="translate(92.37404361050605 -30.91375998306556) rotate(508.12594057692024)"><path class="outline" fill="#FFE081" stroke="none" d="M 11.542385173217793,22.18159923254142 L 12.420064162785048,21.70235024582136 A 56.932755282672126 56.932755282672126 0 0 0 47.022199523677244,49.23716090205836 L 46.752292548464325,50.200047304876165 A 57.932755282672126 57.932755282672126 0 0 1 11.542385173217793,22.18159923254142 Z M 72.74600263409614,51.41678317656064 L 72.5672219893469,50.43289421887128 A 56.932755282672126 56.932755282672126 0 0 0 109.5901679022974,26.250771786481778 L 107.1029483548481,24.573351468616856 L 113.91868523522376,20.726829562077544 L 112.90646063222981,28.487332210301673 L 110.41924108478051,26.80991189243675 A 57.932755282672126 57.932755282672126 0 0 1 72.74600263409614,51.41678317656064"/><text text-anchor="middle" pointer-events="none" font-size="8px" fill="#000000" x="59.70332599595533" y="54.787323886592105" transform="rotate(180 59.70332599595533 51.787323886592105)" font-family="sans-serif">141.6</text></g><g class="relationship" transform="translate(92.37404361050605 -30.91375998306556) rotate(508.12594057692024)"><path class="outline" fill="#FFE081" stroke="none" d="M 16.44653366033987,18.835114296422724 L 17.186485024722753,18.16245392272147 A 61.08815314576304 61.08815314576304 0 0 0 50.77223179617897,37.044359994724005 L 50.582071922321546,38.02611313190999 A 62.08815314576304 62.08815314576304 0 0 1 16.44653366033987,18.835114296422724 Z M 69.40481057377364,38.7613401755692 L 69.29180893133886,37.76774537445205 A 61.08815314576304 61.08815314576304 0 0 0 104.24805552940187,21.56312915302561 L 102.19237176350244,19.37814305361502 L 109.68897038900982,17.130698049162014 L 106.98896721726778,24.476443952239727 L 104.93328345136835,22.291457852829136 A 62.08815314576304 62.08815314576304 0 0 1 69.40481057377364,38.7613401755692"/><text text-anchor="middle" pointer-events="none" font-size="8px" fill="#000000" x="59.98491155930609" y="41.612097432323026" transform="rotate(180 59.98491155930609 38.612097432323026)" font-family="sans-serif">118</text></g><g class="relationship" transform="translate(92.37404361050605 -30.91375998306556) rotate(508.12594057692024)"><path class="outline" fill="#FFE081" stroke="none" d="M 20.42347816666382,14.426764695378036 L 20.983985768904716,13.598615416666664 A 73.87011587018766 73.87011587018766 0 0 0 50.951828450697235,25.402519097828474 L 50.797003746456056,26.390461055109682 A 74.87011587018766 74.87011587018766 0 0 1 20.42347816666382,14.426764695378036 Z M 69.6228069424968,26.942945923763787 L 69.52618548591352,25.947624722277695 A 73.87011587018766 73.87011587018766 0 0 0 100.1346796221282,15.921467740257198 L 98.60174853552078,13.342684638925757 L 106.40732870633613,12.77442572172846 L 102.17858773760477,19.359845208699117 L 100.64565665099735,16.781062107367678 A 74.87011587018766 74.87011587018766 0 0 1 69.6228069424968,26.942945923763787"/><text text-anchor="middle" pointer-events="none" font-size="8px" fill="#000000" x="60.20713087857712" y="29.761242818851755" transform="rotate(180 60.20713087857712 26.761242818851755)" font-family="sans-serif">118</text></g><g class="relationship" transform="translate(92.37404361050605 -30.91375998306556) rotate(508.12594057692024)"><path class="outline" fill="#FFE081" stroke="none" d="M 23.249011035194496,9.205079352477338 L 23.59847521479359,8.268129627477578 A 110.99927930315152 110.99927930315152 0 0 0 49.66074930467335,14.534506859990358 L 49.54608191162546,15.527910800475595 A 111.99927930315152 111.99927930315152 0 0 1 23.249011035194496,9.205079352477338 Z M 71.17577158255676,15.921434903861794 L 71.09731550369028,14.924517332701114 A 110.99927930315152 110.99927930315152 0 0 0 97.37028325146582,9.610311834179598 L 96.42483019505363,6.76318722887676 L 104.17114950657448,7.8787754701016155 L 98.63088732668209,13.406477974583382 L 97.6854342702699,10.559353369280544 A 111.99927930315152 111.99927930315152 0 0 1 71.17577158255676,15.921434903861794"/><text text-anchor="middle" pointer-events="none" font-size="8px" fill="#000000" x="60.36049841806533" y="18.748215562322372" transform="rotate(180 60.36049841806533 15.748215562322372)" font-family="sans-serif">88.5</text></g><g class="relationship" transform="translate(92.37404361050605 -30.91375998306556) rotate(508.12594057692024)"><path class="outline" fill="#FFE081" stroke="none" d="M 24.763837585503556,3.464440508769274 L 24.88255664816086,2.4715126240959857 A 315.923911500761 315.923911500761 0 0 0 47.4581651982521,4.352755657811485 L 47.41090514115992,5.351638277043378 A 316.923911500761 316.923911500761 0 0 1 24.763837585503556,3.464440508769274 Z M 73.46371493160987,5.512195400542851 L 73.42876973739399,4.512806170362126 A 315.923911500761 315.923911500761 0 0 0 96.0258499338403,2.9099514189170312 L 95.70643344065854,-0.07299563121367214 L 103.03929579967557,2.6618041098480325 L 96.45173859141599,6.887214152424636 L 96.13232209823423,3.9042671022939324 A 316.923911500761 316.923911500761 0 0 1 73.46371493160987,5.512195400542851"/><text text-anchor="middle" pointer-events="none" font-size="8px" fill="#000000" x="60.438740797523046" y="8.199754310121875" transform="rotate(180 60.438740797523046 5.199754310121875)" font-family="sans-serif">141.6</text></g><g class="relationship" transform="translate(-16.237636058496115 36.6228501490572) rotate(406.1497426838796)"><path class="outline" fill="#FFE081" stroke="none" d="M 8.151827983325681,-23.638902269992748 L 9.090487148072832,-23.294055967364777 A 110.97742198685928 110.97742198685928 0 0 1 100.49816867341403,-95.26505650401786 L 100.38316967204825,-96.25842211127677 A 111.97742198685928 111.97742198685928 0 0 0 8.151827983325681,-23.638902269992748 Z M 119.7853527818369,-96.81106091600604 L 119.72708307630151,-95.81276003880677 A 110.97742198685928 110.97742198685928 0 0 1 215.08319078125564,-29.161414340113275 L 212.33066524275668,-27.968265916860325 L 218.32595802526234,-22.937712820824522 L 218.75322483258756,-30.75227890445054 L 216.0006992940886,-29.55913048119759 A 111.97742198685928 111.97742198685928 0 0 0 119.7853527818369,-96.81106091600604"/><text text-anchor="middle" pointer-events="none" font-size="8px" fill="#000000" x="110.08650031680972" y="-93.45613097954657" font-family="sans-serif">148</text></g><g class="relationship" transform="translate(-16.237636058496115 36.6228501490572) rotate(406.1497426838796)"><path class="outline" fill="#FFE081" stroke="none" d="M 10.249752961912156,-22.807730360993244 L 11.153500874817196,-22.379665284258653 A 112.98168332474218 112.98168332474218 0 0 1 97.27203757268788,-85.8608262037102 L 97.13052415800979,-86.85076254179774 A 113.98168332474218 113.98168332474218 0 0 0 10.249752961912156,-22.807730360993244 Z M 123.19773794296022,-87.56382809113788 L 123.11055484233346,-86.56763578692895 A 112.98168332474218 112.98168332474218 0 0 1 212.5707471059062,-27.88941022728355 L 209.93376340711302,-26.458914868221186 L 216.34806689351726,-21.97486415660982 L 216.0867253709638,-29.79673737270003 L 213.4497416721706,-28.366242013637667 A 113.98168332474218 113.98168332474218 0 0 0 123.19773794296022,-87.56382809113788"/><text text-anchor="middle" pointer-events="none" font-size="8px" fill="#000000" x="110.15734415155478" y="-84.45540090159176" font-family="sans-serif">176.4</text></g><g class="relationship" transform="translate(-16.237636058496115 36.6228501490572) rotate(406.1497426838796)"><path class="outline" fill="#FFE081" stroke="none" d="M 12.26420231375916,-21.79080864968495 L 13.125678707338118,-21.283011029263005 A 116.23624676784064 116.23624676784064 0 0 1 95.43271576352693,-77.11946591634191 L 95.27934066661648,-78.10763395855321 A 117.23624676784064 117.23624676784064 0 0 0 12.26420231375916,-21.79080864968495 Z M 125.19426251017991,-78.88579939807275 L 125.0924697501493,-77.89099377182944 A 116.23624676784064 116.23624676784064 0 0 1 210.19113544418622,-26.409199509971423 L 207.68940272061332,-24.753502261134994 L 214.47138447873337,-20.847772696440728 L 213.52677907561673,-28.616795841753326 L 211.02504635204383,-26.961098592916898 A 117.23624676784064 117.23624676784064 0 0 0 125.19426251017991,-78.88579939807275"/><text text-anchor="middle" pointer-events="none" font-size="8px" fill="#000000" x="110.22487281360394" y="-75.95529315516117" font-family="sans-serif">110.25</text></g><g class="relationship" transform="translate(-16.237636058496115 36.6228501490572) rotate(406.1497426838796)"><path class="outline" fill="#FFE081" stroke="none" d="M 14.178770041297245,-20.596419109059024 L 14.990958914077456,-20.013024529951533 A 120.9934114531603 120.9934114531603 0 0 1 100.68923651265214,-69.76468791007426 L 100.58533643485109,-70.75927565071504 A 121.9934114531603 121.9934114531603 0 0 0 14.178770041297245,-20.596419109059024 Z M 119.9862883557463,-71.2339880046734 L 119.93115564899126,-70.23550896901675 A 120.9934114531603 120.9934114531603 0 0 1 207.96011935674045,-24.73469204238147 L 205.61206609888148,-22.86743579369523 L 212.70839281331817,-19.567110482158213 L 211.09085703388575,-27.224367040629794 L 208.7428037760268,-25.35711079194355 A 121.9934114531603 121.9934114531603 0 0 0 119.9862883557463,-71.2339880046734"/><text text-anchor="middle" pointer-events="none" font-size="8px" fill="#000000" x="110.28858833298294" y="-67.88318242386397" font-family="sans-serif">145</text></g><g class="relationship" transform="translate(-16.237636058496115 36.6228501490572) rotate(328.12594057692024)"><path class="outline" fill="#FFE081" stroke="none" d="M 24.763837585503556,3.464440508769274 L 24.88255664816086,2.4715126240959857 A 315.923911500761 315.923911500761 0 0 0 51.08014006406878,4.503300304469349 L 51.04434471329975,5.502659445550933 A 316.923911500761 316.923911500761 0 0 1 24.763837585503556,3.464440508769274 Z M 69.82868999922884,5.618422792007095 L 69.8052145136732,4.618698379192267 A 315.923911500761 315.923911500761 0 0 0 96.0258499338403,2.9099514189170312 L 95.70643344065854,-0.07299563121367214 L 103.03929579967557,2.6618041098480325 L 96.45173859141599,6.887214152424636 L 96.13232209823423,3.9042671022939324 A 316.923911500761 316.923911500761 0 0 1 69.82868999922884,5.618422792007095"/><text text-anchor="middle" pointer-events="none" font-size="8px" fill="#000000" x="60.438740797523046" y="8.199754310121875" font-family="sans-serif">115</text></g><g class="relationship" transform="translate(-16.237636058496115 36.6228501490572) rotate(328.12594057692024)"><path class="outline" fill="#FFE081" stroke="none" d="M 23.249011035194496,9.205079352477338 L 23.59847521479359,8.268129627477578 A 110.99927930315152 110.99927930315152 0 0 0 47.46340289045896,14.25863097129762 L 47.328939455238455,15.249549527279228 A 111.99927930315152 111.99927930315152 0 0 1 23.249011035194496,9.205079352477338 Z M 73.40157222048131,15.723907208224077 L 73.30324279375247,14.728753288551758 A 110.99927930315152 110.99927930315152 0 0 0 97.37028325146582,9.610311834179598 L 96.42483019505363,6.76318722887676 L 104.17114950657448,7.8787754701016155 L 98.63088732668209,13.406477974583382 L 97.6854342702699,10.559353369280544 A 111.99927930315152 111.99927930315152 0 0 1 73.40157222048131,15.723907208224077"/><text text-anchor="middle" pointer-events="none" font-size="8px" fill="#000000" x="60.36049841806533" y="18.748215562322372" font-family="sans-serif">86.25</text></g><g class="relationship" transform="translate(-16.237636058496115 36.6228501490572) rotate(406.1497426838796)"><path class="outline" fill="#FFE081" stroke="none" d="M 15.977863598873334,-19.23428903848017 L 16.73415035483106,-18.580048759406083 A 127.63189393550206 127.63189393550206 0 0 1 97.44093215803804,-61.725834418205565 L 97.31698563706885,-62.71812331763941 A 128.63189393550206 128.63189393550206 0 0 0 15.977863598873334,-19.23428903848017 Z M 123.38645600058906,-63.31083463168662 L 123.30773528588347,-62.313937922354995 A 127.63189393550206 127.63189393550206 0 0 1 205.8920203086776,-22.880711876045027 L 203.71470656499602,-20.81690353669388 L 211.07045872444385,-18.14428119734655 L 208.79510530025303,-25.63245632851322 L 206.61779155657146,-23.568647989162073 A 128.63189393550206 128.63189393550206 0 0 0 123.38645600058906,-63.31083463168662"/><text text-anchor="middle" pointer-events="none" font-size="8px" fill="#000000" x="110.34802775040407" y="-60.17691275240827" font-family="sans-serif">109.5</text></g><g class="relationship" transform="translate(-16.237636058496115 36.6228501490572) rotate(406.1497426838796)"><path class="outline" fill="#FFE081" stroke="none" d="M 17.646830880935266,-17.715511843005537 L 18.341056199823182,-16.995754101390368 A 136.72708642819424 136.72708642819424 0 0 1 95.28628232290146,-54.125867447290716 L 95.15482205761899,-55.117188887920264 A 137.72708642819424 137.72708642819424 0 0 0 17.646830880935266,-17.715511843005537 Z M 125.66519536239066,-55.75269236671687 L 125.575127865081,-54.756756703168065 A 136.72708642819424 136.72708642819424 0 0 1 203.99971995556098,-20.862856136062344 L 202.00876276595181,-18.618732817449136 L 209.56783389726002,-16.591309913409823 L 206.65432954170655,-23.855020560879957 L 204.66337235209738,-21.61089724226675 A 137.72708642819424 137.72708642819424 0 0 0 125.66519536239066,-55.75269236671687"/><text text-anchor="middle" pointer-events="none" font-size="8px" fill="#000000" x="110.40276513021978" y="-52.78270319775021" font-family="sans-serif">108.75</text></g><g class="relationship" transform="translate(-16.237636058496115 36.6228501490572) rotate(406.1497426838796)"><path class="outline" fill="#FFE081" stroke="none" d="M 19.172079551121797,-16.05245668692046 L 19.798589550957786,-15.27304330487887 A 149.17857951119905 149.17857951119905 0 0 1 97.5246509873858,-47.347589531095196 L 97.4191679452478,-48.34201063295362 A 150.17857951119905 150.17857951119905 0 0 0 19.172079551121797,-16.05245668692046 Z M 123.4881695834346,-48.83116477228975 L 123.42006594148599,-47.83348652057063 A 149.17857951119905 149.17857951119905 0 0 1 202.2946734810021,-18.697367569612403 L 200.50418427544696,-16.290263831758438 L 208.20966373692053,-14.920743379626082 L 204.68199242174228,-21.906839220084358 L 202.89150321618715,-19.499735482230392 A 150.17857951119905 150.17857951119905 0 0 0 123.4881695834346,-48.83116477228975"/><text text-anchor="middle" pointer-events="none" font-size="8px" fill="#000000" x="110.45241325089047" y="-45.65349909020236" font-family="sans-serif">174.0</text></g><g class="relationship" transform="translate(-16.237636058496115 36.6228501490572) rotate(406.1497426838796)"><path class="outline" fill="#FFE081" stroke="none" d="M 20.541187740422973,-14.25866775728704 L 21.09488002360884,-13.425946402006403 A 166.45632267463628 166.45632267463628 0 0 1 98.1429092770475,-40.58262547813848 L 98.05208934388969,-41.57849280853003 A 167.45632267463628 167.45632267463628 0 0 0 20.541187740422973,-14.25866775728704 Z M 122.93993997446907,-41.990548924051836 L 122.88213696981796,-40.992220915502884 A 166.45632267463628 166.45632267463628 0 0 1 200.78693085040248,-16.401020849088702 L 199.20946353522996,-13.8492377725788 L 207.00400258145436,-13.145560959771107 L 202.89022060396584,-19.803398284435243 L 201.31275328879332,-17.25161520792534 A 167.45632267463628 167.45632267463628 0 0 0 122.93993997446907,-41.990548924051836"/><text text-anchor="middle" pointer-events="none" font-size="8px" fill="#000000" x="110.49662500831646" y="-38.74765628017229" font-family="sans-serif">111.0</text></g><g class="relationship" transform="translate(-16.237636058496115 36.6228501490572) rotate(406.1497426838796)"><path class="outline" fill="#FFE081" stroke="none" d="M 21.74300521286717,-12.348753957919438 L 22.219370420930428,-11.469506445243486 A 191.11616342693085 191.11616342693085 0 0 1 100.90215780674097,-34.147272346518065 L 100.8374939742963,-35.14517945079862 A 192.11616342693085 192.11616342693085 0 0 0 21.74300521286717,-12.348753957919438 Z M 120.22543511429703,-35.4209630575742 L 120.18918114370962,-34.421620448847506 A 191.11616342693085 191.11616342693085 0 0 1 199.48516309478012,-13.991022232222024 L 198.13167158198567,-11.313698806710374 L 205.9578330064397,-11.279095939953626 L 201.2898184451727,-17.56078679957089 L 199.93632693237825,-14.883463374059241 A 192.11616342693085 192.11616342693085 0 0 0 120.22543511429703,-35.4209630575742"/><text text-anchor="middle" pointer-events="none" font-size="8px" fill="#000000" x="110.53509456636712" y="-32.027876048562035" font-family="sans-serif">146</text></g><g class="relationship" transform="translate(-16.237636058496115 36.6228501490572) rotate(406.1497426838796)"><path class="outline" fill="#FFE081" stroke="none" d="M 22.767744174825467,-10.338269932135697 L 23.16290271335562,-9.419656994372074 A 228.00357294018255 228.00357294018255 0 0 1 97.60441943582033,-27.43804575722919 L 97.53575366125223,-28.4356854774704 A 229.00357294018255 229.00357294018255 0 0 0 22.767744174825467,-10.338269932135697 Z M 123.59632388551563,-28.742829313532184 L 123.55118981892984,-27.743848374758358 A 228.00357294018255 228.00357294018255 0 0 1 198.3966910297826,-11.484921778986655 L 197.27649503606366,-8.701908854895915 L 205.07708718494746,-9.334966614324298 L 199.8902856880745,-15.195605677774306 L 198.77008969435556,-12.412592753683567 A 229.00357294018255 229.00357294018255 0 0 0 123.59632388551563,-28.742829313532184"/><text text-anchor="middle" pointer-events="none" font-size="8px" fill="#000000" x="110.56755828693967" y="-25.460329560797703" font-family="sans-serif">175.2</text></g><g class="relationship" transform="translate(-16.237636058496115 36.6228501490572) rotate(406.1497426838796)"><path class="outline" fill="#FFE081" stroke="none" d="M 23.60705898836768,-8.243589383255856 L 23.917792623053348,-7.293092351027434 A 287.5217188618042 287.5217188618042 0 0 1 68.91916164970674,-18.086561079968533 L 68.76494269225935,-19.07459777623228 A 288.5217188618042 288.5217188618042 0 0 0 23.60705898836768,-8.243589383255856 Z M 152.469902578007,-19.849618254840948 L 152.33400486688623,-18.85889538132278 A 287.5217188618042 287.5217188618042 0 0 1 197.5275141323583,-8.900536995155043 L 196.6482721771082,-6.0322738300797045 L 204.36666851007578,-7.3270162937507255 L 198.69983673935843,-12.724887881922163 L 197.82059478410832,-9.856624716846824 A 288.5217188618042 288.5217188618042 0 0 0 152.469902578007,-19.849618254840948"/><text text-anchor="middle" pointer-events="none" font-size="8px" fill="#000000" x="110.59379546910331" y="-19.013925727883077" font-family="sans-serif">172.79999999999998</text></g><g class="relationship" transform="translate(-16.237636058496115 36.6228501490572) rotate(406.1497426838796)"><path class="outline" fill="#FFE081" stroke="none" d="M 24.25411413947192,-6.081771724544457 L 24.47789220591554,-5.107131597636708 A 396.7438390236675 396.7438390236675 0 0 1 100.95726166145899,-14.977695323367982 L 100.92625122473773,-15.977214384123897 A 397.7438390236675 397.7438390236675 0 0 0 24.25411413947192,-6.081771724544457 Z M 120.29591520024603,-16.10627716180727 L 120.27822679596687,-15.106433613868887 A 396.7438390236675 396.7438390236675 0 0 1 196.8823376289679,-6.255886508377345 L 196.25002628829,-3.323279755256475 L 203.83047194302958,-5.269261172315749 L 197.72541941653841,-10.166028845871837 L 197.09310807586053,-7.233422092750968 A 397.7438390236675 397.7438390236675 0 0 0 120.29591520024603,-16.10627716180727"/><text text-anchor="middle" pointer-events="none" font-size="8px" fill="#000000" x="110.61362892350941" y="-12.659686996039625" font-family="sans-serif">144</text></g><g class="relationship" transform="translate(-16.237636058496115 36.6228501490572) rotate(406.1497426838796)"><path class="outline" fill="#FFE081" stroke="none" d="M 24.703639907543522,-3.870423144621656 L 24.838639921396815,-2.879577548042849 A 654.9763880079781 654.9763880079781 0 0 1 97.6305692769509,-8.688978746941643 L 97.60670598602121,-9.688693978067931 A 655.9763880079781 655.9763880079781 0 0 0 24.703639907543522,-3.870423144621656 Z M 123.64416527928422,-9.793306654225603 L 123.62833589259736,-8.7934319468161 A 654.9763880079781 654.9763880079781 0 0 1 196.4645961858691,-3.5691321770377566 L 196.0834948072551,-0.5934370079691038 L 203.47140181013162,-3.1758448217832225 L 196.97273135735443,-7.53672573579596 L 196.59162997874043,-4.5610305667273074 A 655.9763880079781 655.9763880079781 0 0 0 123.64416527928422,-9.793306654225603"/><text text-anchor="middle" pointer-events="none" font-size="8px" fill="#000000" x="110.62692540441887" y="-6.370205177909384" font-family="sans-serif">177.6</text></g><g class="relationship" transform="translate(-16.237636058496115 36.6228501490572) rotate(406.1497426838796)"><path class="outline" fill="#FFE081" stroke="none" d="M 24.951975282862097,-1.627553219848411 L 24.997097782429915,-0.6285717585425707 A 1956.0832054740506 1956.0832054740506 0 0 1 100.96299142364401,-2.582262050002555 L 100.95670464099693,-3.5822422879891747 A 1957.0832054740506 1957.0832054740506 0 0 0 24.951975282862097,-1.627553219848411 Z M 120.30920884764319,-3.6082245567270093 L 120.30560718806537,-2.608231042723901 A 1956.0832054740506 1956.0832054740506 0 0 1 196.2764729281362,-0.8585278772332328 L 196.1491531730464,2.1387691851154207 L 203.29138603279802,-1.060997959081778 L 196.44623260158926,-4.854923960364771 L 196.31891284649944,-1.8576268980161172 A 1957.0832054740506 1957.0832054740506 0 0 0 120.30920884764319,-3.6082245567270093"/><text text-anchor="middle" pointer-events="none" font-size="8px" fill="#000000" x="110.63359591754676" y="-0.11915480570519321" font-family="sans-serif">147</text></g><g class="relationship" transform="translate(-16.237636058496115 36.6228501490572) rotate(328.12594057692024)"><path class="outline" fill="#FFE081" stroke="none" d="M 20.42347816666382,14.426764695378036 L 20.983985768904716,13.598615416666664 A 73.87011587018766 73.87011587018766 0 0 0 47.40390922298372,24.75741627439092 L 47.20105536397652,25.736625297983878 A 74.87011587018766 74.87011587018766 0 0 1 20.42347816666382,14.426764695378036 Z M 73.2509100612914,26.501115949513235 L 73.10582997636722,25.511696034129287 A 73.87011587018766 73.87011587018766 0 0 0 100.1346796221282,15.921467740257198 L 98.60174853552078,13.342684638925757 L 106.40732870633613,12.77442572172846 L 102.17858773760477,19.359845208699117 L 100.64565665099735,16.781062107367678 A 74.87011587018766 74.87011587018766 0 0 1 73.2509100612914,26.501115949513235"/><text text-anchor="middle" pointer-events="none" font-size="8px" fill="#000000" x="60.20713087857712" y="29.761242818851755" font-family="sans-serif">138.0</text></g><g class="relationship" transform="translate(-16.237636058496115 36.6228501490572) rotate(406.1497426838796)"><path class="outline" fill="#FFE081" stroke="none" d="M 24.951975282862097,1.627553219848411 L 24.997097782429915,0.6285717585425707 A 1956.0832054740506 1956.0832054740506 0 0 0 98.21766669901285,2.563075811988938 L 98.2099764358201,3.5630462414776503 A 1957.0832054740506 1957.0832054740506 0 0 1 24.951975282862097,1.627553219848411 Z M 123.05597869511038,3.596403966187154 L 123.05097353370914,2.596416492086064 A 1956.0832054740506 1956.0832054740506 0 0 0 196.2764729281362,0.8585278772332328 L 196.1491531730464,-2.1387691851154207 L 203.29138603279802,1.060997959081778 L 196.44623260158926,4.854923960364771 L 196.31891284649944,1.8576268980161172 A 1957.0832054740506 1957.0832054740506 0 0 1 123.05597869511038,3.596403966187154"/><text text-anchor="middle" pointer-events="none" font-size="8px" fill="#000000" x="110.63359591754674" y="6.119154805705193" font-family="sans-serif">111.0</text></g><g class="relationship" transform="translate(-16.237636058496115 36.6228501490572) rotate(406.1497426838796)"><path class="outline" fill="#FFE081" stroke="none" d="M 24.703639907543522,3.870423144621656 L 24.838639921396815,2.879577548042849 A 654.9763880079781 654.9763880079781 0 0 0 100.96320089515052,8.760044187552694 L 100.94442577484688,9.759867919446265 A 655.9763880079781 655.9763880079781 0 0 1 24.703639907543522,3.870423144621656 Z M 120.30598133449803,9.83765831054609 L 120.29524082601748,8.837715991470873 A 654.9763880079781 654.9763880079781 0 0 0 196.4645961858691,3.5691321770377566 L 196.0834948072551,0.5934370079691038 L 203.47140181013162,3.1758448217832225 L 196.97273135735443,7.53672573579596 L 196.59162997874043,4.5610305667273074 A 655.9763880079781 655.9763880079781 0 0 1 120.30598133449803,9.83765831054609"/><text text-anchor="middle" pointer-events="none" font-size="8px" fill="#000000" x="110.6269254044191" y="12.370205177909384" font-family="sans-serif">147</text></g><g class="relationship" transform="translate(-16.237636058496115 36.6228501490572) rotate(328.12594057692024)"><path class="outline" fill="#FFE081" stroke="none" d="M 16.44653366033987,18.835114296422724 L 17.186485024722753,18.16245392272147 A 61.08815314576304 61.08815314576304 0 0 0 47.25879208533794,36.255727721759634 L 47.0111179549526,37.224571117328736 A 62.08815314576304 62.08815314576304 0 0 1 16.44653366033987,18.835114296422724 Z M 73.02740652353364,38.24078237571473 L 72.8560588719777,37.2555717473178 A 61.08815314576304 61.08815314576304 0 0 0 104.24805552940187,21.56312915302561 L 102.19237176350244,19.37814305361502 L 109.68897038900982,17.130698049162014 L 106.98896721726778,24.476443952239727 L 104.93328345136835,22.291457852829136 A 62.08815314576304 62.08815314576304 0 0 1 73.02740652353364,38.24078237571473"/><text text-anchor="middle" pointer-events="none" font-size="8px" fill="#000000" x="59.98491155930609" y="41.612097432323026" font-family="sans-serif">86.25</text></g><g class="relationship" transform="translate(-16.237636058496115 36.6228501490572) rotate(406.1497426838796)"><path class="outline" fill="#FFE081" stroke="none" d="M 24.25411413947192,6.081771724544457 L 24.47789220591554,5.107131597636708 A 396.7438390236675 396.7438390236675 0 0 0 100.95726166145919,14.977695323367982 L 100.92625122473792,15.977214384123897 A 397.7438390236675 397.7438390236675 0 0 1 24.25411413947192,6.081771724544457 Z M 120.29591520024607,16.10627716180727 L 120.27822679596692,15.106433613868887 A 396.7438390236675 396.7438390236675 0 0 0 196.8823376289679,6.255886508377345 L 196.25002628829,3.323279755256475 L 203.83047194302958,5.269261172315749 L 197.72541941653841,10.166028845871837 L 197.09310807586053,7.233422092750968 A 397.7438390236675 397.7438390236675 0 0 1 120.29591520024607,16.10627716180727"/><text text-anchor="middle" pointer-events="none" font-size="8px" fill="#000000" x="110.61362892350954" y="18.659686996039625" font-family="sans-serif">145</text></g><g class="relationship" transform="translate(-16.237636058496115 36.6228501490572) rotate(328.12594057692024)"><path class="outline" fill="#FFE081" stroke="none" d="M 11.542385173217793,22.18159923254142 L 12.420064162785048,21.70235024582136 A 56.932755282672126 56.932755282672126 0 0 0 47.022199523677244,49.23716090205836 L 46.752292548464325,50.200047304876165 A 57.932755282672126 57.932755282672126 0 0 1 11.542385173217793,22.18159923254142 Z M 72.74600263409614,51.41678317656064 L 72.5672219893469,50.43289421887128 A 56.932755282672126 56.932755282672126 0 0 0 109.5901679022974,26.250771786481778 L 107.1029483548481,24.573351468616856 L 113.91868523522376,20.726829562077544 L 112.90646063222981,28.487332210301673 L 110.41924108478051,26.80991189243675 A 57.932755282672126 57.932755282672126 0 0 1 72.74600263409614,51.41678317656064"/><text text-anchor="middle" pointer-events="none" font-size="8px" fill="#000000" x="59.70332599595533" y="54.787323886592105" font-family="sans-serif">138.0</text></g><g class="relationship" transform="translate(-16.237636058496115 36.6228501490572) rotate(406.1497426838796)"><path class="outline" fill="#FFE081" stroke="none" d="M 23.60705898836768,8.243589383255856 L 23.917792623053348,7.293092351027434 A 287.5217188618042 287.5217188618042 0 0 0 68.91916164970672,18.086561079968533 L 68.76494269225935,19.07459777623228 A 288.5217188618042 288.5217188618042 0 0 1 23.60705898836768,8.243589383255856 Z M 152.469902578007,19.849618254840948 L 152.33400486688623,18.85889538132278 A 287.5217188618042 287.5217188618042 0 0 0 197.5275141323583,8.900536995155043 L 196.6482721771082,6.0322738300797045 L 204.36666851007578,7.3270162937507255 L 198.69983673935843,12.724887881922163 L 197.82059478410832,9.856624716846824 A 288.5217188618042 288.5217188618042 0 0 1 152.469902578007,19.849618254840948"/><text text-anchor="middle" pointer-events="none" font-size="8px" fill="#000000" x="110.59379546910331" y="25.013925727883077" font-family="sans-serif">172.79999999999998</text></g><g class="relationship" transform="translate(-16.237636058496115 36.6228501490572) rotate(406.1497426838796)"><path class="outline" fill="#FFE081" stroke="none" d="M 22.767744174825467,10.338269932135697 L 23.16290271335562,9.419656994372074 A 228.00357294018255 228.00357294018255 0 0 0 97.60441943582028,27.43804575722919 L 97.53575366125217,28.4356854774704 A 229.00357294018255 229.00357294018255 0 0 1 22.767744174825467,10.338269932135697 Z M 123.59632388551557,28.742829313532184 L 123.5511898189298,27.743848374758358 A 228.00357294018255 228.00357294018255 0 0 0 198.3966910297826,11.484921778986655 L 197.27649503606366,8.701908854895915 L 205.07708718494746,9.334966614324298 L 199.8902856880745,15.195605677774306 L 198.77008969435556,12.412592753683567 A 229.00357294018255 229.00357294018255 0 0 1 123.59632388551557,28.742829313532184"/><text text-anchor="middle" pointer-events="none" font-size="8px" fill="#000000" x="110.56755828693962" y="31.460329560797703" font-family="sans-serif">177.6</text></g><g class="relationship" transform="translate(-16.237636058496115 36.6228501490572) rotate(406.1497426838796)"><path class="outline" fill="#FFE081" stroke="none" d="M 21.74300521286717,12.348753957919438 L 22.219370420930428,11.469506445243486 A 191.11616342693085 191.11616342693085 0 0 0 100.90215780674103,34.14727234651809 L 100.83749397429634,35.14517945079862 A 192.11616342693085 192.11616342693085 0 0 1 21.74300521286717,12.348753957919438 Z M 120.22543511429706,35.4209630575742 L 120.18918114370965,34.421620448847506 A 191.11616342693085 191.11616342693085 0 0 0 199.48516309478012,13.991022232222024 L 198.13167158198567,11.313698806710374 L 205.9578330064397,11.279095939953626 L 201.2898184451727,17.56078679957089 L 199.93632693237825,14.883463374059241 A 192.11616342693085 192.11616342693085 0 0 1 120.22543511429706,35.4209630575742"/><text text-anchor="middle" pointer-events="none" font-size="8px" fill="#000000" x="110.53509456636715" y="38.027876048562035" font-family="sans-serif">148</text></g><g class="relationship" transform="translate(-16.237636058496115 36.6228501490572) rotate(406.1497426838796)"><path class="outline" fill="#FFE081" stroke="none" d="M 20.541187740422973,14.25866775728704 L 21.09488002360884,13.425946402006403 A 166.45632267463628 166.45632267463628 0 0 0 97.55735788081319,40.52818192760131 L 97.46302019965503,41.523722183901214 A 167.45632267463628 167.45632267463628 0 0 1 20.541187740422973,14.25866775728704 Z M 123.53049938252026,41.9553088392928 L 123.4691697304508,40.95719127418485 A 166.45632267463628 166.45632267463628 0 0 0 200.78693085040248,16.401020849088702 L 199.20946353522996,13.8492377725788 L 207.00400258145436,13.145560959771107 L 202.89022060396584,19.803398284435243 L 201.31275328879332,17.25161520792534 A 167.45632267463628 167.45632267463628 0 0 1 123.53049938252026,41.9553088392928"/><text text-anchor="middle" pointer-events="none" font-size="8px" fill="#000000" x="110.49662500831647" y="44.74765628017229" font-family="sans-serif">109.5</text></g><g class="relationship" transform="translate(-16.237636058496115 36.6228501490572) rotate(406.1497426838796)"><path class="outline" fill="#FFE081" stroke="none" d="M 19.172079551121797,16.05245668692046 L 19.798589550957786,15.27304330487887 A 149.17857951119905 149.17857951119905 0 0 0 95.61349983757246,47.13239771750827 L 95.49520563208866,48.1253763078862 A 150.17857951119905 150.17857951119905 0 0 1 19.172079551121797,16.05245668692046 Z M 125.41890450706744,48.686859304899116 L 125.33794460472592,47.69014194565787 A 149.17857951119905 149.17857951119905 0 0 0 202.2946734810021,18.697367569612403 L 200.50418427544696,16.290263831758438 L 208.20966373692053,14.920743379626082 L 204.68199242174228,21.906839220084358 L 202.89150321618715,19.499735482230392 A 150.17857951119905 150.17857951119905 0 0 1 125.41890450706744,48.686859304899116"/><text text-anchor="middle" pointer-events="none" font-size="8px" fill="#000000" x="110.4524132508905" y="51.65349909020236" font-family="sans-serif">110.25</text></g><g class="relationship" transform="translate(-16.237636058496115 36.6228501490572) rotate(406.1497426838796)"><path class="outline" fill="#FFE081" stroke="none" d="M 17.646830880935266,17.715511843005537 L 18.341056199823182,16.995754101390368 A 136.72708642819424 136.72708642819424 0 0 0 100.79173843694124,54.74273673247927 L 100.7005441954428,55.7385698562091 A 137.72708642819424 137.72708642819424 0 0 1 17.646830880935266,17.715511843005537 Z M 120.09840879297188,56.14260983008339 L 120.04876026272082,55.14384307881264 A 136.72708642819424 136.72708642819424 0 0 0 203.99971995556098,20.862856136062344 L 202.00876276595181,18.618732817449136 L 209.56783389726002,16.591309913409823 L 206.65432954170655,23.855020560879957 L 204.66337235209738,21.61089724226675 A 137.72708642819424 137.72708642819424 0 0 1 120.09840879297188,56.14260983008339"/><text text-anchor="middle" pointer-events="none" font-size="8px" fill="#000000" x="110.40276513021983" y="58.78270319775021" font-family="sans-serif">146</text></g><g class="relationship" transform="translate(-16.237636058496115 36.6228501490572) rotate(406.1497426838796)"><path class="outline" fill="#FFE081" stroke="none" d="M 15.977863598873334,19.23428903848017 L 16.73415035483106,18.580048759406083 A 127.63189393550206 127.63189393550206 0 0 0 97.4409321580381,61.725834418205565 L 97.3169856370689,62.71812331763941 A 128.63189393550206 128.63189393550206 0 0 1 15.977863598873334,19.23428903848017 Z M 123.38645600058908,63.31083463168662 L 123.30773528588348,62.313937922354995 A 127.63189393550206 127.63189393550206 0 0 0 205.8920203086776,22.880711876045027 L 203.71470656499602,20.81690353669388 L 211.07045872444385,18.14428119734655 L 208.79510530025303,25.63245632851322 L 206.61779155657146,23.568647989162073 A 128.63189393550206 128.63189393550206 0 0 1 123.38645600058908,63.31083463168662"/><text text-anchor="middle" pointer-events="none" font-size="8px" fill="#000000" x="110.3480277504041" y="66.17691275240827" font-family="sans-serif">108.0</text></g><g class="relationship" transform="translate(-16.237636058496115 36.6228501490572) rotate(406.1497426838796)"><path class="outline" fill="#FFE081" stroke="none" d="M 14.178770041297245,20.596419109059024 L 14.990958914077456,20.013024529951533 A 120.9934114531603 120.9934114531603 0 0 0 97.39016233291001,69.3741930409208 L 97.25899569455726,70.36555337550315 A 121.9934114531603 121.9934114531603 0 0 1 14.178770041297245,20.596419109059024 Z M 123.32790453110646,71.00342068888978 L 123.2453800485534,70.0068316513325 A 120.9934114531603 120.9934114531603 0 0 0 207.96011935674045,24.73469204238147 L 205.61206609888148,22.86743579369523 L 212.70839281331817,19.567110482158213 L 211.09085703388575,27.224367040629794 L 208.7428037760268,25.35711079194355 A 121.9934114531603 121.9934114531603 0 0 1 123.32790453110646,71.00342068888978"/><text text-anchor="middle" pointer-events="none" font-size="8px" fill="#000000" x="110.28858833298293" y="73.88318242386397" font-family="sans-serif">174.0</text></g><g class="relationship" transform="translate(-16.237636058496115 36.6228501490572) rotate(406.1497426838796)"><path class="outline" fill="#FFE081" stroke="none" d="M 12.26420231375916,21.79080864968495 L 13.125678707338118,21.283011029263005 A 116.23624676784064 116.23624676784064 0 0 0 100.63012818296176,77.80651909965266 L 100.52146730011069,78.80059797606941 A 117.23624676784064 117.23624676784064 0 0 1 12.26420231375916,21.79080864968495 Z M 119.92319807690998,79.30528779061481 L 119.86636636415436,78.30690401849847 A 116.23624676784064 116.23624676784064 0 0 0 210.19113544418622,26.409199509971423 L 207.68940272061332,24.753502261134994 L 214.47138447873337,20.847772696440728 L 213.52677907561673,28.616795841753326 L 211.02504635204383,26.961098592916898 A 117.23624676784064 117.23624676784064 0 0 1 119.92319807690998,79.30528779061481"/><text text-anchor="middle" pointer-events="none" font-size="8px" fill="#000000" x="110.22487281360397" y="81.95529315516117" font-family="sans-serif">144</text></g><g class="relationship" transform="translate(-16.237636058496115 36.6228501490572) rotate(406.1497426838796)"><path class="outline" fill="#FFE081" stroke="none" d="M 10.249752961912156,22.807730360993244 L 11.153500874817196,22.379665284258653 A 112.98168332474218 112.98168332474218 0 0 0 95.08273129607637,85.5259317162221 L 94.92184034857893,86.51290390580667 A 113.98168332474218 113.98168332474218 0 0 1 10.249752961912156,22.807730360993244 Z M 125.42158909882187,87.34722092475424 L 125.3148953970968,86.35292898874539 A 112.98168332474218 112.98168332474218 0 0 0 212.5707471059062,27.88941022728355 L 209.93376340711302,26.458914868221186 L 216.34806689351726,21.97486415660982 L 216.0867253709638,29.79673737270003 L 213.4497416721706,28.366242013637667 A 113.98168332474218 113.98168332474218 0 0 1 125.42158909882187,87.34722092475424"/><text text-anchor="middle" pointer-events="none" font-size="8px" fill="#000000" x="110.15734415155481" y="90.45540090159176" font-family="sans-serif">108.75</text></g><g class="relationship" transform="translate(-16.237636058496115 36.6228501490572) rotate(328.12594057692024)"><path class="outline" fill="#FFE081" stroke="none" d="M 5.987513214418485,24.277555179777966 L 6.953439040707552,24.018736134675446 A 57.39085418683397 57.39085418683397 0 0 0 50.195521421328415,65.24550513103979 L 49.98306203134377,66.22267502804203 A 58.39085418683397 58.39085418683397 0 0 1 5.987513214418485,24.277555179777966 Z M 68.79468611005211,67.20328941869381 L 68.68497819591552,66.20932554934252 A 57.39085418683397 57.39085418683397 0 0 0 115.97918972320664,29.70204235127591 L 113.17784916868985,28.62850096985666 L 118.95100970560435,23.344504620973268 L 119.71431046256237,31.13343085983491 L 116.91296990804557,30.05988947841566 A 58.39085418683397 58.39085418683397 0 0 1 68.79468611005211,67.20328941869381"/><text text-anchor="middle" pointer-events="none" font-size="8px" fill="#000000" x="59.3750983110432" y="69.97724961990431" font-family="sans-serif">115</text></g><g class="relationship" transform="translate(-16.237636058496115 36.6228501490572) rotate(406.1497426838796)"><path class="outline" fill="#FFE081" stroke="none" d="M 8.151827983325681,23.638902269992748 L 9.090487148072832,23.294055967364777 A 110.97742198685928 110.97742198685928 0 0 0 97.20543240097427,94.8338482969543 L 97.06076307375764,95.82332835524889 A 111.97742198685928 111.97742198685928 0 0 1 8.151827983325681,23.638902269992748 Z M 123.12713855885362,96.56578555762628 L 123.03902546419815,95.56967508054544 A 110.97742198685928 110.97742198685928 0 0 0 215.08319078125564,29.161414340113275 L 212.33066524275668,27.968265916860325 L 218.32595802526234,22.937712820824522 L 218.75322483258756,30.75227890445054 L 216.0006992940886,29.55913048119759 A 111.97742198685928 111.97742198685928 0 0 1 123.12713855885362,96.56578555762628"/><text text-anchor="middle" pointer-events="none" font-size="8px" fill="#000000" x="110.08650031680972" y="99.45613097954657" font-family="sans-serif">176.4</text></g><g class="relationship" transform="translate(-16.237636058496115 36.6228501490572) rotate(406.1497426838796)"><path class="outline" fill="#FFE081" stroke="none" d="M 5.987513214418485,24.277555179777966 L 6.953439040707552,24.018736134675446 A 110.0571280341033 110.0571280341033 0 0 0 97.1344330700826,104.4031468982856 L 96.98790890945784,105.39235399002787 A 111.0571280341033 111.0571280341033 0 0 1 5.987513214418485,24.277555179777966 Z M 123.05358182450783,106.15835751430932 L 122.96540089797199,105.16225303977099 A 110.0571280341033 110.0571280341033 0 0 0 217.71127290375475,30.21237034604569 L 214.86409307832804,29.267083595010284 L 220.3914719604085,23.726498545222583 L 221.50751267099037,31.47275268075957 L 218.66033284556366,30.527465929724162 A 111.0571280341033 111.0571280341033 0 0 1 123.05358182450783,106.15835751430932"/><text text-anchor="middle" pointer-events="none" font-size="8px" fill="#000000" x="110.01287191942906" y="109.0432745046873" font-family="sans-serif">175.2</text></g></g><g class="layer nodes"><g class="node" transform="translate(141.90155358848813,201.23958639482993)"><circle class="outline" cx="0" cy="0" r="25" fill="#ECB5C9" stroke="#da7298" stroke-width="2px"/><text text-anchor="middle" pointer-events="none" font-family="sans-serif" dy="1.5625" font-size="25" fill="#604A0E"/><text text-anchor="middle" pointer-events="none" y="5" font-size="10px" fill="#604A0E" font-family="sans-serif"> GRR</text></g><g class="node" transform="translate(92.37404361050605,-30.91375998306556)"><circle class="outline" cx="0" cy="0" r="25" fill="#ECB5C9" stroke="#da7298" stroke-width="2px"/><text text-anchor="middle" pointer-events="none" font-family="sans-serif" dy="1.5625" font-size="25" fill="#604A0E"/><text text-anchor="middle" pointer-events="none" y="5" font-size="10px" fill="#604A0E" font-family="sans-serif"> MSN</text></g><g class="node" transform="translate(-16.237636058496115,36.6228501490572)"><circle class="outline" cx="0" cy="0" r="25" fill="#ECB5C9" stroke="#da7298" stroke-width="2px"/><text text-anchor="middle" pointer-events="none" font-family="sans-serif" dy="1.5625" font-size="25" fill="#604A0E"/><text text-anchor="middle" pointer-events="none" y="5" font-size="10px" fill="#604A0E" font-family="sans-serif"> ORD</text></g></g></svg>