<svg xmlns="http://www.w3.org/2000/svg" width="612.0105590820312" height="579.484130859375" viewBox="-192.8726806640625 -185.76600646972656 612.0105590820312 579.484130859375"><title>Neo4j Graph Visualization</title><desc>Created using Neo4j (http://www.neo4j.com/)</desc><g class="layer relationships"><g class="relationship" transform="translate(158.67846228778066 299.73965826639835) rotate(270.9785605670652)"><path class="outline" fill="#A5ABB6" stroke="none" d="M 24.018736134675446,6.953439040707552 L 24.277555179777966,5.987513214418485 A 111.71115941399681 111.71115941399681 0 0 0 28.326582094180885,6.991805074952865 L 28.10400854984698,7.96672097766583 A 112.71115941399681 112.71115941399681 0 0 1 24.018736134675446,6.953439040707552 Z M 74.85599978488335,8.692099646889659 L 74.66377863206297,7.710748013473591 A 111.71115941399681 111.71115941399681 0 0 0 78.74201317599253,6.8325543563599265 L 78.05582884516765,3.9120833217269158 L 85.6708096452737,5.718202756874032 L 79.65692561709237,10.726515735870606 L 78.9707412862675,7.806044701237596 A 112.71115941399681 112.71115941399681 0 0 1 74.85599978488335,8.692099646889659"/><text text-anchor="middle" pointer-events="none" font-size="8px" fill="#000000" x="51.449732503000845" y="13.280474834956436" font-family="sans-serif">DIRECTED</text></g><g class="relationship" transform="translate(158.67846228778066 299.73965826639835) rotate(270.9785605670652)"><path class="outline" fill="#A5ABB6" stroke="none" d="M 24.018736134675446,-6.953439040707552 L 24.277555179777966,-5.987513214418485 A 111.71115941399681 111.71115941399681 0 0 1 33.749890821644826,-8.089385671081857 L 33.57586487771103,-9.07412673899664 A 112.71115941399681 112.71115941399681 0 0 0 24.018736134675446,-6.953439040707552 Z M 69.35242174747454,-9.62921649081349 L 69.20902963754595,-8.639550535649704 A 111.71115941399681 111.71115941399681 0 0 1 78.74201317599253,-6.8325543563599265 L 78.05582884516765,-3.9120833217269158 L 85.6708096452737,-5.718202756874032 L 79.65692561709237,-10.726515735870606 L 78.9707412862675,-7.806044701237596 A 112.71115941399681 112.71115941399681 0 0 0 69.35242174747454,-9.62921649081349"/><text text-anchor="middle" pointer-events="none" font-size="8px" fill="#000000" x="51.44973250300086" y="-7.280474834956436" font-family="sans-serif">WROTE</text></g><g class="relationship" transform="translate(257.9806089551387 240.633471698585) rotate(207.57880294465986)"><path class="outline" fill="#A5ABB6" stroke="none" d="M 24.018736134675446,6.953439040707552 L 24.277555179777966,5.987513214418485 A 111.51980279421102 111.51980279421102 0 0 0 33.70236270077167,8.080248809678082 L 33.52805606767893,9.064940232236367 A 112.51980279421102 112.51980279421102 0 0 1 24.018736134675446,6.953439040707552 Z M 69.30435802256116,9.620482230793485 L 69.16070905080527,8.63085352622116 A 111.51980279421102 111.51980279421102 0 0 0 78.64594976314861,6.831757167392654 L 77.95983989543615,3.911268638151766 L 85.57477464266275,5.717582230937086 L 79.56076292009854,10.725741873047172 L 78.87465305238608,7.805253343806283 A 112.51980279421102 112.51980279421102 0 0 1 69.30435802256116,9.620482230793485"/><text text-anchor="middle" pointer-events="none" font-size="8px" fill="#000000" x="51.40174648861572" y="13.273955380972453" transform="rotate(180 51.40174648861572 10.273955380972453)" font-family="sans-serif">WROTE</text></g><g class="relationship" transform="translate(257.9806089551387 240.633471698585) rotate(207.57880294465986)"><path class="outline" fill="#A5ABB6" stroke="none" d="M 24.018736134675446,-6.953439040707552 L 24.277555179777966,-5.987513214418485 A 111.51980279421102 111.51980279421102 0 0 1 28.279456922408475,-6.980901708628849 L 28.056522999430992,-7.955735266722684 A 112.51980279421102 112.51980279421102 0 0 0 24.018736134675446,-6.953439040707552 Z M 74.8076927113496,-8.681697337631974 L 74.61513381838765,-7.700411919039979 A 111.51980279421102 111.51980279421102 0 0 1 78.64594976314861,-6.831757167392654 L 77.95983989543615,-3.911268638151766 L 85.57477464266275,-5.717582230937086 L 79.56076292009854,-10.725741873047172 L 78.87465305238608,-7.805253343806283 A 112.51980279421102 112.51980279421102 0 0 0 74.8076927113496,-8.681697337631974"/><text text-anchor="middle" pointer-events="none" font-size="8px" fill="#000000" x="51.40174648861571" y="-7.273955380972453" transform="rotate(180 51.40174648861571 -10.273955380972453)" font-family="sans-serif">DIRECTED</text></g><g class="relationship" transform="translate(390.137889757563 113.6092895113158) rotate(214.9742642410946)"><path class="outline" fill="#A5ABB6" stroke="none" d="M 21.40063509461097,12.933012701892217 L 21.90063509461097,12.06698729810778 A 56.47488583125451 56.47488583125451 0 0 0 23.7500843028265,13.089118807484887 L 23.28283247364603,13.973243079364984 A 57.47488583125451 57.47488583125451 0 0 1 21.40063509461097,12.933012701892217 Z M 73.71376278323115,15.575374939911697 L 73.30357171574107,14.663375330179683 A 56.47488583125451 56.47488583125451 0 0 0 75.21416991571834,13.760696143273151 L 73.88210390780785,11.072648496640117 L 81.70829209251384,11.100550065920828 L 76.99025792626568,17.344759672117195 L 75.65819191835519,14.656712025484161 A 57.47488583125451 57.47488583125451 0 0 1 73.71376278323115,15.575374939911697"/><text text-anchor="middle" pointer-events="none" font-size="8px" fill="#000000" x="48.32896501349866" y="23.104457865339526" transform="rotate(180 48.32896501349866 20.104457865339526)" font-family="sans-serif">PRODUCED</text></g><g class="relationship" transform="translate(390.137889757563 113.6092895113158) rotate(214.9742642410946)"><path class="outline" fill="#A5ABB6" stroke="none" d="M 25 0.5 L 25.109032073894568 0.5 L 25.109032073894568 -0.5 L 25 -0.5 Z M 71.99965707389457 0.5 L 72.10868914778914 0.5 L 72.10868914778914 3.5 L 79.10868914778914 0 L 72.10868914778914 -3.5 L 72.10868914778914 -0.5 L 71.99965707389457 -0.5 Z"/><text text-anchor="middle" pointer-events="none" font-size="8px" fill="#000000" x="48.55434457389457" y="3" transform="rotate(180 48.55434457389457 0)" font-family="sans-serif">DIRECTED</text></g><g class="relationship" transform="translate(390.137889757563 113.6092895113158) rotate(214.9742642410946)"><path class="outline" fill="#A5ABB6" stroke="none" d="M 21.40063509461097,-12.933012701892217 L 21.90063509461097,-12.06698729810778 A 56.47488583125451 56.47488583125451 0 0 1 31.001337571939292,-16.292075074294736 L 30.66248358123838,-17.232914047225847 A 57.47488583125451 57.47488583125451 0 0 0 21.40063509461097,-12.933012701892217 Z M 66.14208953899109,-18.360059764261223 L 65.86363728463184,-17.399609691617023 A 56.47488583125451 56.47488583125451 0 0 1 75.21416991571834,-13.760696143273151 L 73.88210390780785,-11.072648496640117 L 81.70829209251384,-11.100550065920828 L 76.99025792626568,-17.344759672117195 L 75.65819191835519,-14.656712025484161 A 57.47488583125451 57.47488583125451 0 0 0 66.14208953899109,-18.360059764261223"/><text text-anchor="middle" pointer-events="none" font-size="8px" fill="#000000" x="48.328965013498674" y="-17.104457865339526" transform="rotate(180 48.328965013498674 -20.104457865339526)" font-family="sans-serif">WROTE</text></g><g class="relationship" transform="translate(276.991517740302 -119.81682132861164) rotate(527.3193220706041)"><path class="outline" fill="#A5ABB6" stroke="none" d="M 21.40063509461097,12.933012701892217 L 21.90063509461097,12.06698729810778 A 55.19449934735678 55.19449934735678 0 0 0 23.182324588955346,12.784403898791133 L 22.705545915527733,13.663427275365727 A 56.19449934735678 56.19449934735678 0 0 1 21.40063509461097,12.933012701892217 Z M 73.06415225155189,15.281389802356813 L 72.64478260226306,14.37357423889948 A 55.19449934735678 55.19449934735678 0 0 0 73.96988070709817,13.739910644070905 L 72.63974838078798,11.050905624643715 L 80.46591447347998,11.084436052584973 L 75.74339047551177,17.325250669973826 L 74.41325814920158,14.636245650546636 A 56.19449934735678 56.19449934735678 0 0 1 73.06415225155189,15.281389802356813"/><text text-anchor="middle" pointer-events="none" font-size="8px" fill="#000000" x="47.70940915147226" y="22.93292466777256" transform="rotate(180 47.70940915147226 19.93292466777256)" font-family="sans-serif">PRODUCED</text></g><g class="relationship" transform="translate(276.991517740302 -119.81682132861164) rotate(527.3193220706041)"><path class="outline" fill="#A5ABB6" stroke="none" d="M 25 0.5 L 26.0484729426866 0.5 L 26.0484729426866 -0.5 L 25 -0.5 Z M 69.8258166926866 0.5 L 70.8742896353732 0.5 L 70.8742896353732 3.5 L 77.8742896353732 0 L 70.8742896353732 -3.5 L 70.8742896353732 -0.5 L 69.8258166926866 -0.5 Z"/><text text-anchor="middle" pointer-events="none" font-size="8px" fill="#000000" x="47.9371448176866" y="3" transform="rotate(180 47.9371448176866 0)" font-family="sans-serif">DIRECT…</text></g><g class="relationship" transform="translate(276.991517740302 -119.81682132861164) rotate(527.3193220706041)"><path class="outline" fill="#A5ABB6" stroke="none" d="M 21.40063509461097,-12.933012701892217 L 21.90063509461097,-12.06698729810778 A 55.19449934735678 55.19449934735678 0 0 1 30.40208519052771,-16.053084996982477 L 30.056112316354405,-16.991329512200267 A 56.19449934735678 56.19449934735678 0 0 0 21.40063509461097,-12.933012701892217 Z M 65.51512298755019,-18.130585633137272 L 65.23009085085914,-17.172067672401354 A 55.19449934735678 55.19449934735678 0 0 1 73.96988070709817,-13.739910644070905 L 72.63974838078798,-11.050905624643715 L 80.46591447347998,-11.084436052584973 L 75.74339047551177,-17.325250669973826 L 74.41325814920158,-14.636245650546636 A 56.19449934735678 56.19449934735678 0 0 0 65.51512298755019,-18.130585633137272"/><text text-anchor="middle" pointer-events="none" font-size="8px" fill="#000000" x="47.70940915147224" y="-16.93292466777256" transform="rotate(180 47.70940915147224 -19.93292466777256)" font-family="sans-serif">WROTE</text></g><g class="relationship" transform="translate(0.15304784756004353 -156.76601393383095) rotate(497.51688651080474)"><path class="outline" fill="#A5ABB6" stroke="none" d="M 24.018736134675446,-6.953439040707552 L 24.277555179777966,-5.987513214418485 A 103.65778729624321 103.65778729624321 0 0 1 31.753873001839217,-7.697066342522348 L 31.56717895590048,-8.67948444761356 A 104.65778729624321 104.65778729624321 0 0 0 24.018736134675446,-6.953439040707552 Z M 67.33131440984845,-9.254220866471712 L 67.1762839040086,-8.266311183221745 A 103.65778729624321 103.65778729624321 0 0 1 74.7036726881871,-6.797870457109884 L 74.02072810876493,-3.876640116750214 L 81.63370091226336,-5.691204828518094 L 75.61426546075,-10.692844244256111 L 74.93132088132784,-7.771613903896441 A 104.65778729624321 104.65778729624321 0 0 0 67.33131440984845,-9.254220866471712"/><text text-anchor="middle" pointer-events="none" font-size="8px" fill="#000000" x="49.43254546267207" y="-7.006119844515126" transform="rotate(180 49.43254546267207 -10.006119844515126)" font-family="sans-serif">WROTE</text></g><g class="relationship" transform="translate(0.15304784756004353 -156.76601393383095) rotate(497.51688651080474)"><path class="outline" fill="#A5ABB6" stroke="none" d="M 24.018736134675446,6.953439040707552 L 24.277555179777966,5.987513214418485 A 103.65778729624321 103.65778729624321 0 0 0 26.34935508707917,6.519800632500889 L 26.110522962027147,7.490861503941574 A 104.65778729624321 104.65778729624321 0 0 1 24.018736134675446,6.953439040707552 Z M 72.82334568542655,8.241545397345675 L 72.61583909140003,7.2633117782977905 A 103.65778729624321 103.65778729624321 0 0 0 74.7036726881871,6.797870457109884 L 74.02072810876493,3.876640116750214 L 81.63370091226336,5.691204828518094 L 75.61426546075,10.692844244256111 L 74.93132088132784,7.771613903896441 A 104.65778729624321 104.65778729624321 0 0 1 72.82334568542655,8.241545397345675"/><text text-anchor="middle" pointer-events="none" font-size="8px" fill="#000000" x="49.43254546267208" y="13.006119844515126" transform="rotate(180 49.43254546267208 10.006119844515126)" font-family="sans-serif">DIRECTED</text></g><g class="relationship" transform="translate(-4.705068547087473 -4.975553069842969) rotate(227.5804884825351)"><path class="outline" fill="#A5ABB6" stroke="none" d="M 24.018736134675446,-6.953439040707552 L 24.277555179777966,-5.987513214418485 A 109.02178450587049 109.02178450587049 0 0 1 27.664886782720576,-6.837238843837127 L 27.43713796471345,-7.810958760392367 A 110.02178450587049 110.02178450587049 0 0 0 24.018736134675446,-6.953439040707552 Z M 74.1771294801444,-8.544615354781783 L 73.98005341710319,-7.564227153416539 A 109.02178450587049 109.02178450587049 0 0 1 77.39238522857649,-6.821232777938502 L 76.70725841652337,-3.900513474170006 L 84.32158473937851,-5.7093901004426435 L 78.30588764464731,-10.715525182963164 L 77.6207608325942,-7.794805879194668 A 110.02178450587049 110.02178450587049 0 0 0 74.1771294801444,-8.544615354781783"/><text text-anchor="middle" pointer-events="none" font-size="8px" fill="#000000" x="50.775566959885346" y="-7.188850850565373" transform="rotate(180 50.775566959885346 -10.188850850565373)" font-family="sans-serif">DIRECTED</text></g><g class="relationship" transform="translate(-4.705068547087473 -4.975553069842969) rotate(227.5804884825351)"><path class="outline" fill="#A5ABB6" stroke="none" d="M 24.018736134675446,6.953439040707552 L 24.277555179777966,5.987513214418485 A 109.02178450587049 109.02178450587049 0 0 0 33.082350078172695,7.960186443053942 L 32.90429282703916,8.944206572583198 A 110.02178450587049 110.02178450587049 0 0 1 24.018736134675446,6.953439040707552 Z M 68.6771005699086,9.505716223087006 L 68.53001486954818,8.516592471097667 A 109.02178450587049 109.02178450587049 0 0 0 77.39238522857649,6.821232777938502 L 76.70725841652337,3.900513474170006 L 84.32158473937851,5.7093901004426435 L 78.30588764464731,10.715525182963164 L 77.6207608325942,7.794805879194668 A 110.02178450587049 110.02178450587049 0 0 1 68.6771005699086,9.505716223087006"/><text text-anchor="middle" pointer-events="none" font-size="8px" fill="#000000" x="50.77556695988536" y="13.188850850565373" transform="rotate(180 50.77556695988536 10.188850850565373)" font-family="sans-serif">WROTE</text></g><g class="relationship" transform="translate(-163.87268451776805 78.4105593862517) rotate(446.5265167512973)"><path class="outline" fill="#A5ABB6" stroke="none" d="M 21.40063509461097,12.933012701892217 L 21.90063509461097,12.06698729810778 A 55.67357786441859 55.67357786441859 0 0 0 30.6261051326047,16.142834601618446 L 30.28283064536486,17.08206973001294 A 56.67357786441859 56.67357786441859 0 0 1 21.40063509461097,12.933012701892217 Z M 65.74972947490176,18.21676964917836 L 65.46719383745906,17.257512846453018 A 55.67357786441859 55.67357786441859 0 0 0 74.43535216097712,13.747741499231777 L 73.10449132456903,11.059096964505184 L 80.93066621474051,11.090506970067354 L 76.2098332761879,17.332600878867236 L 74.8789724397798,14.643956344140642 A 56.67357786441859 56.67357786441859 0 0 1 65.74972947490176,18.21676964917836"/><text text-anchor="middle" pointer-events="none" font-size="8px" fill="#000000" x="47.941170047030205" y="22.99710579657313" font-family="sans-serif">WROTE</text></g><g class="relationship" transform="translate(-163.87268451776805 78.4105593862517) rotate(446.5265167512973)"><path class="outline" fill="#A5ABB6" stroke="none" d="M 25 0.5 L 26.279346793731072 0.5 L 26.279346793731072 -0.5 L 25 -0.5 Z M 70.05669054373107 0.5 L 71.33603733746214 0.5 L 71.33603733746214 3.5 L 78.33603733746214 0 L 71.33603733746214 -3.5 L 71.33603733746214 -0.5 L 70.05669054373107 -0.5 Z"/><text text-anchor="middle" pointer-events="none" font-size="8px" fill="#000000" x="48.16801866873107" y="3" font-family="sans-serif">DIRECT…</text></g><g class="relationship" transform="translate(-163.87268451776805 78.4105593862517) rotate(446.5265167512973)"><path class="outline" fill="#A5ABB6" stroke="none" d="M 21.40063509461097,-12.933012701892217 L 21.90063509461097,-12.06698729810778 A 55.67357786441859 55.67357786441859 0 0 1 23.394325189350457,-12.89905277030907 L 22.921154614582964,-13.780023602501714 A 56.67357786441859 56.67357786441859 0 0 0 21.40063509461097,-12.933012701892217 Z M 73.30742066301278,-15.392041960435698 L 72.89153026885803,-14.482627214541495 A 55.67357786441859 55.67357786441859 0 0 1 74.43535216097712,-13.747741499231777 L 73.10449132456903,-11.059096964505184 L 80.93066621474051,-11.090506970067354 L 76.2098332761879,-17.332600878867236 L 74.8789724397798,-14.643956344140642 A 56.67357786441859 56.67357786441859 0 0 0 73.30742066301278,-15.392041960435698"/><text text-anchor="middle" pointer-events="none" font-size="8px" fill="#000000" x="47.9411700470302" y="-16.99710579657313" font-family="sans-serif">PRODUCED</text></g><g class="relationship" transform="translate(-12.826663086419593 260.8766365317655) rotate(455.6375073095744)"><path class="outline" fill="#A5ABB6" stroke="none" d="M 21.40063509461097,12.933012701892217 L 21.90063509461097,12.06698729810778 A 56.72107835520094 56.72107835520094 0 0 0 26.028478552996802,14.229175695806482 L 25.601252970869048,15.133320762693202 A 57.72107835520094 57.72107835520094 0 0 1 21.40063509461097,12.933012701892217 Z M 71.5661181388691,16.590430178704523 L 71.19701651302017,15.661041137562073 A 56.72107835520094 56.72107835520094 0 0 0 75.4535192836833,13.764640745393097 L 74.12108631121522,11.076774979793955 L 81.94727823215932,11.103608103900747 L 77.23009658030743,17.34846176619195 L 75.89766360783935,14.66059600059281 A 57.72107835520094 57.72107835520094 0 0 1 71.5661181388691,16.590430178704523"/><text text-anchor="middle" pointer-events="none" font-size="8px" fill="#000000" x="48.44814796543254" y="23.137441159307215" transform="rotate(180 48.44814796543254 20.137441159307215)" font-family="sans-serif">DIRECTED</text></g><g class="relationship" transform="translate(-12.826663086419593 260.8766365317655) rotate(455.6375073095744)"><path class="outline" fill="#A5ABB6" stroke="none" d="M 25 0.5 L 30.786361056076096 0.5 L 30.786361056076096 -0.5 L 25 -0.5 Z M 66.55979855607609 0.5 L 72.34615961215219 0.5 L 72.34615961215219 3.5 L 79.34615961215219 0 L 72.34615961215219 -3.5 L 72.34615961215219 -0.5 L 66.55979855607609 -0.5 Z"/><text text-anchor="middle" pointer-events="none" font-size="8px" fill="#000000" x="48.673079806076096" y="3" transform="rotate(180 48.673079806076096 0)" font-family="sans-serif">WROTE</text></g><g class="relationship" transform="translate(-12.826663086419593 260.8766365317655) rotate(455.6375073095744)"><path class="outline" fill="#A5ABB6" stroke="none" d="M 21.40063509461097,-12.933012701892217 L 21.90063509461097,-12.06698729810778 A 56.72107835520094 56.72107835520094 0 0 1 23.859671332050002,-13.147098172364672 L 23.394209396103918,-14.032166071559601 A 57.72107835520094 57.72107835520094 0 0 0 21.40063509461097,-12.933012701892217 Z M 73.83847458459253,-15.63127472816651 L 73.43000507944413,-14.718502761373152 A 56.72107835520094 56.72107835520094 0 0 1 75.4535192836833,-13.764640745393097 L 74.12108631121522,-11.076774979793955 L 81.94727823215932,-11.103608103900747 L 77.23009658030743,-17.34846176619195 L 75.89766360783935,-14.66059600059281 A 57.72107835520094 57.72107835520094 0 0 0 73.83847458459253,-15.63127472816651"/><text text-anchor="middle" pointer-events="none" font-size="8px" fill="#000000" x="48.44814796543254" y="-17.137441159307215" transform="rotate(180 48.44814796543254 -20.137441159307215)" font-family="sans-serif">PRODUCED</text></g></g><g class="layer nodes"><g class="node" transform="translate(158.67846228778066,299.73965826639835)"><circle class="outline" cx="0" cy="0" r="25" fill="#F79767" stroke="#f36924" stroke-width="2px"/><text text-anchor="middle" pointer-events="none" font-family="sans-serif" dy="1.5625" font-size="25" fill="#FFFFFF"/><text text-anchor="middle" pointer-events="none" font-family="sans-serif" dy="1.5625" font-size="25" fill="#FFFFFF"/><text text-anchor="middle" pointer-events="none" y="0" font-size="10px" fill="#FFFFFF" font-family="sans-serif"> Andy</text><text text-anchor="middle" pointer-events="none" y="10" font-size="10px" fill="#FFFFFF" font-family="sans-serif"> Wacho…</text></g><g class="node" transform="translate(160.55721016710712,189.74763405422985)"><circle class="outline" cx="0" cy="0" r="25" fill="#57C7E3" stroke="#23b3d7" stroke-width="2px"/><text text-anchor="middle" pointer-events="none" font-family="sans-serif" dy="1.5625" font-size="25" fill="#FFFFFF"/><text text-anchor="middle" pointer-events="none" font-family="sans-serif" dy="1.5625" font-size="25" fill="#FFFFFF"/><text text-anchor="middle" pointer-events="none" y="0" font-size="10px" fill="#FFFFFF" font-family="sans-serif"> Speed</text><text text-anchor="middle" pointer-events="none" y="10" font-size="10px" fill="#FFFFFF" font-family="sans-serif"> Racer</text></g><g class="node" transform="translate(257.9806089551387,240.633471698585)"><circle class="outline" cx="0" cy="0" r="25" fill="#F79767" stroke="#f36924" stroke-width="2px"/><text text-anchor="middle" pointer-events="none" font-family="sans-serif" dy="1.5625" font-size="25" fill="#FFFFFF"/><text text-anchor="middle" pointer-events="none" font-family="sans-serif" dy="1.5625" font-size="25" fill="#FFFFFF"/><text text-anchor="middle" pointer-events="none" y="0" font-size="10px" fill="#FFFFFF" font-family="sans-serif"> Lana</text><text text-anchor="middle" pointer-events="none" y="10" font-size="10px" fill="#FFFFFF" font-family="sans-serif"> Wacho…</text></g><g class="node" transform="translate(390.137889757563,113.6092895113158)"><circle class="outline" cx="0" cy="0" r="25" fill="#F79767" stroke="#f36924" stroke-width="2px"/><text text-anchor="middle" pointer-events="none" font-family="sans-serif" dy="1.5625" font-size="25" fill="#FFFFFF"/><text text-anchor="middle" pointer-events="none" font-family="sans-serif" dy="1.5625" font-size="25" fill="#FFFFFF"/><text text-anchor="middle" pointer-events="none" y="0" font-size="10px" fill="#FFFFFF" font-family="sans-serif"> Cameron</text><text text-anchor="middle" pointer-events="none" y="10" font-size="10px" fill="#FFFFFF" font-family="sans-serif"> Crowe</text></g><g class="node" transform="translate(304.8302307271228,53.93331053470294)"><circle class="outline" cx="0" cy="0" r="25" fill="#57C7E3" stroke="#23b3d7" stroke-width="2px"/><text text-anchor="middle" pointer-events="none" font-family="sans-serif" dy="1.5625" font-size="25" fill="#FFFFFF"/><text text-anchor="middle" pointer-events="none" font-family="sans-serif" dy="1.5625" font-size="25" fill="#FFFFFF"/><text text-anchor="middle" pointer-events="none" y="0" font-size="10px" fill="#FFFFFF" font-family="sans-serif"> Jerry</text><text text-anchor="middle" pointer-events="none" y="10" font-size="10px" fill="#FFFFFF" font-family="sans-serif"> Maguire</text></g><g class="node" transform="translate(276.991517740302,-119.81682132861164)"><circle class="outline" cx="0" cy="0" r="25" fill="#F79767" stroke="#f36924" stroke-width="2px"/><text text-anchor="middle" pointer-events="none" font-family="sans-serif" dy="1.5625" font-size="25" fill="#FFFFFF"/><text text-anchor="middle" pointer-events="none" font-family="sans-serif" dy="1.5625" font-size="25" fill="#FFFFFF"/><text text-anchor="middle" pointer-events="none" y="0" font-size="10px" fill="#FFFFFF" font-family="sans-serif"> Nancy</text><text text-anchor="middle" pointer-events="none" y="10" font-size="10px" fill="#FFFFFF" font-family="sans-serif"> Meyers</text></g><g class="node" transform="translate(176.626473169335,-97.23414442239755)"><circle class="outline" cx="0" cy="0" r="25" fill="#57C7E3" stroke="#23b3d7" stroke-width="2px"/><text text-anchor="middle" pointer-events="none" font-family="sans-serif" dy="1.5625" font-size="25" fill="#FFFFFF"/><text text-anchor="middle" pointer-events="none" y="5" font-size="10px" fill="#FFFFFF" font-family="sans-serif"> Somethi…</text></g><g class="node" transform="translate(0.15304784756004353,-156.76601393383095)"><circle class="outline" cx="0" cy="0" r="25" fill="#F79767" stroke="#f36924" stroke-width="2px"/><text text-anchor="middle" pointer-events="none" font-family="sans-serif" dy="1.5625" font-size="25" fill="#FFFFFF"/><text text-anchor="middle" pointer-events="none" font-family="sans-serif" dy="1.5625" font-size="25" fill="#FFFFFF"/><text text-anchor="middle" pointer-events="none" y="0" font-size="10px" fill="#FFFFFF" font-family="sans-serif"> Lilly</text><text text-anchor="middle" pointer-events="none" y="10" font-size="10px" fill="#FFFFFF" font-family="sans-serif"> Wacho…</text></g><g class="node" transform="translate(-78.00270224587945,-85.19182791277265)"><circle class="outline" cx="0" cy="0" r="25" fill="#57C7E3" stroke="#23b3d7" stroke-width="2px"/><text text-anchor="middle" pointer-events="none" font-family="sans-serif" dy="1.5625" font-size="25" fill="#FFFFFF"/><text text-anchor="middle" pointer-events="none" font-family="sans-serif" dy="1.5625" font-size="25" fill="#FFFFFF"/><text text-anchor="middle" pointer-events="none" y="0" font-size="10px" fill="#FFFFFF" font-family="sans-serif"> Speed</text><text text-anchor="middle" pointer-events="none" y="10" font-size="10px" fill="#FFFFFF" font-family="sans-serif"> Racer</text></g><g class="node" transform="translate(-4.705068547087473,-4.975553069842969)"><circle class="outline" cx="0" cy="0" r="25" fill="#F79767" stroke="#f36924" stroke-width="2px"/><text text-anchor="middle" pointer-events="none" font-family="sans-serif" dy="1.5625" font-size="25" fill="#FFFFFF"/><text text-anchor="middle" pointer-events="none" font-family="sans-serif" dy="1.5625" font-size="25" fill="#FFFFFF"/><text text-anchor="middle" pointer-events="none" y="0" font-size="10px" fill="#FFFFFF" font-family="sans-serif"> Lana</text><text text-anchor="middle" pointer-events="none" y="10" font-size="10px" fill="#FFFFFF" font-family="sans-serif"> Wacho…</text></g><g class="node" transform="translate(-163.87268451776805,78.4105593862517)"><circle class="outline" cx="0" cy="0" r="25" fill="#F79767" stroke="#f36924" stroke-width="2px"/><text text-anchor="middle" pointer-events="none" font-family="sans-serif" dy="1.5625" font-size="25" fill="#FFFFFF"/><text text-anchor="middle" pointer-events="none" font-family="sans-serif" dy="1.5625" font-size="25" fill="#FFFFFF"/><text text-anchor="middle" pointer-events="none" y="0" font-size="10px" fill="#FFFFFF" font-family="sans-serif"> Cameron</text><text text-anchor="middle" pointer-events="none" y="10" font-size="10px" fill="#FFFFFF" font-family="sans-serif"> Crowe</text></g><g class="node" transform="translate(-157.611906223949,181.55676274713656)"><circle class="outline" cx="0" cy="0" r="25" fill="#57C7E3" stroke="#23b3d7" stroke-width="2px"/><text text-anchor="middle" pointer-events="none" font-family="sans-serif" dy="1.5625" font-size="25" fill="#FFFFFF"/><text text-anchor="middle" pointer-events="none" font-family="sans-serif" dy="1.5625" font-size="25" fill="#FFFFFF"/><text text-anchor="middle" pointer-events="none" y="0" font-size="10px" fill="#FFFFFF" font-family="sans-serif"> Jerry</text><text text-anchor="middle" pointer-events="none" y="10" font-size="10px" fill="#FFFFFF" font-family="sans-serif"> Maguire</text></g><g class="node" transform="translate(-12.826663086419593,260.8766365317655)"><circle class="outline" cx="0" cy="0" r="25" fill="#F79767" stroke="#f36924" stroke-width="2px"/><text text-anchor="middle" pointer-events="none" font-family="sans-serif" dy="1.5625" font-size="25" fill="#FFFFFF"/><text text-anchor="middle" pointer-events="none" font-family="sans-serif" dy="1.5625" font-size="25" fill="#FFFFFF"/><text text-anchor="middle" pointer-events="none" y="0" font-size="10px" fill="#FFFFFF" font-family="sans-serif"> Nancy</text><text text-anchor="middle" pointer-events="none" y="10" font-size="10px" fill="#FFFFFF" font-family="sans-serif"> Meyers</text></g><g class="node" transform="translate(-23.077043441938226,364.7181057450424)"><circle class="outline" cx="0" cy="0" r="25" fill="#57C7E3" stroke="#23b3d7" stroke-width="2px"/><text text-anchor="middle" pointer-events="none" font-family="sans-serif" dy="1.5625" font-size="25" fill="#FFFFFF"/><text text-anchor="middle" pointer-events="none" y="5" font-size="10px" fill="#FFFFFF" font-family="sans-serif"> Somethi…</text></g></g></svg>